<svg width="40" height="37" viewBox="0 0 40 37" fill="none" xmlns="http://www.w3.org/2000/svg">
<path d="M4.32812 25.3998C4.32812 25.7598 4.61613 26.0478 4.96013 26.0558H5.00013C5.37613 26.0558 5.67213 25.7678 5.67213 25.3998V24.6798C5.67213 24.3038 5.37613 24.0078 5.00013 24.0078C4.62413 24.0078 4.32812 24.3038 4.32812 24.6798V25.3998Z" fill="#434F58"/>
<path d="M9.0635 11.934C9.4235 11.934 9.7195 11.638 9.7195 11.278V11.238C9.7195 10.878 9.4235 10.582 9.0635 10.582H8.3435C7.9835 10.582 7.6875 10.87 7.6875 11.23V11.27C7.6875 11.63 7.9835 11.926 8.3435 11.942H9.0635V11.934Z" fill="#434F58"/>
<path d="M4.32812 21.3139C4.32812 21.6739 4.62413 21.9699 4.98413 21.9699H5.02413C5.38413 21.9699 5.68013 21.6739 5.68013 21.3139V20.5779C5.68013 20.2179 5.38413 19.9219 5.02413 19.9219H4.98413C4.60813 19.9219 4.32812 20.2179 4.32812 20.5779V21.3139Z" fill="#434F58"/>
<path d="M4.32812 17.2318C4.32812 17.5918 4.62413 17.8878 4.98413 17.8878H5.02413C5.38413 17.8878 5.68013 17.5918 5.68013 17.2318V16.4958C5.68013 16.1358 5.38413 15.8398 5.02413 15.8398H4.98413C4.60813 15.8558 4.32812 16.1358 4.32812 16.4958V17.2318Z" fill="#434F58"/>
<path d="M10.9932 28.0469H10.2732C9.91319 28.0469 9.61719 28.3429 9.61719 28.7029V28.7429C9.61719 29.1029 9.91319 29.3989 10.2732 29.3989H10.9932C11.3532 29.3989 11.6492 29.1029 11.6492 28.7429V28.7029C11.6492 28.3509 11.3532 28.0469 10.9932 28.0469Z" fill="#434F58"/>
<path d="M5.87175 12.0246C5.58375 11.7286 5.07175 11.7606 4.84775 12.1206C4.67175 12.3846 4.55175 12.6646 4.46375 12.9526C4.35175 13.3606 4.63975 13.7766 5.06375 13.7846H5.10375C5.39975 13.8006 5.67975 13.6006 5.75975 13.3126C5.80775 13.1526 5.88775 13.0006 5.96775 12.8486C6.12775 12.5846 6.10375 12.2646 5.89575 12.0406L5.87175 12.0246Z" fill="#434F58"/>
<path d="M32.5832 12.3772C32.8472 12.5372 33.1672 12.5132 33.3912 12.3052L33.4152 12.2812C33.7272 11.9932 33.6792 11.4812 33.3192 11.2572C33.0552 11.0972 32.7832 10.9692 32.4872 10.8812C32.0872 10.7532 31.6792 11.0572 31.6552 11.4652V11.5052C31.6392 11.8012 31.8392 12.0812 32.1272 12.1612C32.2792 12.2092 32.4312 12.2892 32.5832 12.3772Z" fill="#434F58"/>
<path d="M28.9442 12.0862C29.3202 12.0862 29.6162 11.7902 29.6162 11.4142C29.6162 11.0382 29.3202 10.7422 28.9442 10.7422H28.2482C27.8722 10.7422 27.5762 11.0382 27.5762 11.4142C27.5762 11.7902 27.8722 12.0862 28.2482 12.0862H28.9442Z" fill="#434F58"/>
<path d="M24.8641 12.0862C25.2401 12.0862 25.5361 11.7902 25.5361 11.4142C25.5361 11.0382 25.2401 10.7422 24.8641 10.7422H24.1681C23.7921 10.7422 23.4961 11.0382 23.4961 11.4142C23.4961 11.7902 23.7921 12.0862 24.1681 12.0862H24.8641Z" fill="#434F58"/>
<path d="M14.1427 29.5042H14.8387C15.2147 29.5042 15.5107 29.2082 15.5107 28.8322C15.5107 28.4562 15.2147 28.1602 14.8387 28.1602H14.1427C13.7667 28.1602 13.4707 28.4562 13.4707 28.8322C13.4707 29.2082 13.7667 29.5042 14.1427 29.5042Z" fill="#434F58"/>
<path d="M20.8641 12.137C21.2401 12.137 21.5361 11.841 21.5361 11.465C21.5361 11.089 21.2401 10.793 20.8641 10.793H20.1681C19.7921 10.793 19.4961 11.089 19.4961 11.465C19.4961 11.841 19.7921 12.137 20.1681 12.137H20.8641Z" fill="#434F58"/>
<path d="M12.911 10.6797H12.215C11.839 10.6797 11.543 10.9917 11.543 11.3517C11.543 11.7277 11.839 12.0237 12.215 12.0237H12.911C13.287 12.0237 13.583 11.7277 13.583 11.3517C13.583 10.9757 13.279 10.6797 12.911 10.6797Z" fill="#434F58"/>
<path d="M16.7842 10.6172H16.0802C15.7042 10.6172 15.4082 10.9132 15.4082 11.2892C15.4082 11.6652 15.7042 11.9612 16.0802 11.9612H16.7762C17.1522 11.9612 17.4482 11.6652 17.4482 11.2892C17.4562 10.9212 17.1522 10.6172 16.7842 10.6172Z" fill="#434F58"/>
<path d="M18.088 29.368H18.776C19.152 29.368 19.448 29.072 19.448 28.696C19.448 28.32 19.152 28.008 18.776 28.024H18.088C17.712 28.024 17.416 28.32 17.416 28.696C17.416 29.072 17.712 29.368 18.088 29.368Z" fill="#434F58"/>
<path d="M5.81603 28.361C6.01603 28.585 6.24803 28.793 6.51203 28.945C6.86403 29.177 7.34403 28.993 7.48003 28.601L7.49603 28.569C7.59202 28.273 7.48003 27.969 7.22403 27.801C7.08003 27.705 6.95203 27.601 6.84003 27.473C6.64003 27.249 6.30403 27.185 6.04003 27.321L6.00803 27.337C5.63203 27.545 5.53603 28.041 5.81603 28.361Z" fill="#434F58"/>
<path d="M7.5278 3.87172C7.9038 3.87172 8.2078 3.56772 8.2078 3.19172C8.2078 2.81572 7.9038 2.51172 7.5278 2.51172C7.15181 2.51172 6.83981 2.81572 6.84781 3.19172C6.84781 3.56772 7.15181 3.87172 7.5278 3.87172Z" fill="#434F58"/>
<path d="M11.0476 3.8708C11.4228 3.85378 11.7131 3.53584 11.6961 3.16066C11.6791 2.78548 11.3611 2.49514 10.986 2.51215C10.6108 2.52917 10.3204 2.84711 10.3375 3.22229C10.3545 3.59747 10.6724 3.88781 11.0476 3.8708Z" fill="#434F58"/>
<path d="M4.03953 3.87172C4.41553 3.87172 4.71953 3.56772 4.71953 3.19172C4.71953 2.81572 4.41553 2.51172 4.03953 2.51172C3.66353 2.51172 3.35153 2.81572 3.35953 3.19172C3.35953 3.56772 3.66353 3.87172 4.03953 3.87172Z" fill="#434F58"/>
<path d="M39.36 0H0.64C0.272 0 0 0.288 0 0.64V26.144C0 26.48 0.248 26.76 0.568 26.8C0.952 26.84 1.272 26.536 1.272 26.16V6.392H38.72L38.712 8.688C38.712 9.024 38.976 9.304 39.32 9.32C39.328 9.32 39.328 9.32 39.336 9.32C39.696 9.336 40 9.048 40 8.688V0.64C40 0.288 39.712 0 39.36 0ZM13.832 5.112H1.272V1.28H13.832V5.112ZM38.712 5.112H15.096V1.28H38.712V5.112Z" fill="#434F58"/>
<path d="M9.76781 34.8973H1.27981V28.7533C1.27981 28.4173 1.03181 28.1373 0.711812 28.0973C0.327812 28.0573 0.0078125 28.3613 0.0078125 28.7373V35.5373C0.0078125 35.8893 0.295813 36.1773 0.647813 36.1773H9.77581C9.94381 36.1773 10.1118 36.1053 10.2318 35.9933C10.6238 35.5853 10.3358 34.8973 9.76781 34.8973Z" fill="#434F58"/>
<path d="M38.8149 31.4062L18.3189 31.4222C17.9189 31.4222 17.5669 31.6142 17.3429 31.9102L14.2069 33.1422C13.8629 33.2862 13.6309 33.6222 13.6309 33.9982C13.6309 34.3902 13.8549 34.7182 14.1989 34.8542L17.3349 36.0862C17.5589 36.3742 17.9029 36.5662 18.3029 36.5662L38.7989 36.5502C39.4469 36.5502 39.9989 36.0062 39.9909 35.3422V32.5982C39.9989 31.9502 39.4629 31.4142 38.8149 31.4062ZM14.6389 33.9982L17.0869 33.0222V34.9662L14.6389 33.9982ZM18.3029 35.6302C18.1749 35.6302 18.0549 35.5262 18.0549 35.3742L18.0469 34.4862L36.2469 34.4782L36.2389 35.5182C36.2389 35.5502 36.2389 35.5902 36.2469 35.6222L18.3029 35.6302ZM36.2469 32.4702L36.2389 33.5102L18.0549 33.5182V32.6143C18.0549 32.4863 18.1589 32.3662 18.3109 32.3662H36.2549C36.2469 32.4062 36.2469 32.4382 36.2469 32.4702ZM38.8789 35.3742L37.3589 35.3662C37.3669 35.3342 37.3669 35.2942 37.3669 35.2622V32.4143C37.3669 32.3823 37.3669 32.3422 37.3589 32.3102L38.8789 32.3182C39.0069 32.3182 39.1189 32.4222 39.1189 32.5582V35.1262C39.1189 35.2622 39.0069 35.3742 38.8789 35.3742Z" fill="#434F58"/>
<path d="M39.6483 11.024C39.4403 10.936 39.1923 10.984 39.0323 11.144L21.6323 28.544C21.4723 28.704 21.4243 28.944 21.5123 29.16C21.6003 29.368 21.8003 29.504 22.0323 29.504H39.4403C39.7523 29.504 40.0003 29.248 40.0003 28.944V11.536C39.9923 11.312 39.8563 11.112 39.6483 11.024ZM38.8643 28.376H37.8803H37.4003H36.7443H35.4243H34.7683H33.4483H32.7923H31.4723H30.8163H29.4963H28.8403H27.5203H26.8643H26.6963H23.3923L38.6963 13.072C38.7603 13.008 38.8803 13.056 38.8803 13.152V28.376H38.8643Z" fill="#434F58"/>
<path d="M36.5677 18.5123C36.3597 18.4243 36.1117 18.4723 35.9517 18.6323L30.3357 24.2403C30.1917 24.4163 30.1437 24.6483 30.2317 24.8643C30.3197 25.0723 30.5197 25.2083 30.7517 25.2083H36.3597C36.6717 25.2083 36.9197 24.9523 36.9197 24.6483V19.0323C36.9117 18.8003 36.7757 18.6003 36.5677 18.5123ZM36.0797 24.2403C36.0797 24.3123 36.0157 24.3763 35.9437 24.3763H31.7677C31.6477 24.3763 31.5837 24.2323 31.6717 24.1443L35.8477 19.9683C35.9357 19.8803 36.0797 19.9443 36.0797 20.0643V24.2403Z" fill="#434F58"/>
<path d="M27.1854 27.1367C27.0014 27.1367 26.8574 27.2807 26.8574 27.4647V28.3767H27.5134V27.4647C27.5134 27.2887 27.3694 27.1367 27.1854 27.1367Z" fill="#434F58"/>
<path d="M29.16 27.1367C28.976 27.1367 28.832 27.2807 28.832 27.4647V28.3767H29.488V27.4647C29.496 27.2887 29.344 27.1367 29.16 27.1367Z" fill="#434F58"/>
<path d="M31.1366 27.1367C30.9526 27.1367 30.8086 27.2807 30.8086 27.4647V28.3767H31.4646V27.4647C31.4726 27.2887 31.3206 27.1367 31.1366 27.1367Z" fill="#434F58"/>
<path d="M33.119 27.1367C32.935 27.1367 32.791 27.2807 32.791 27.4647V28.3767H33.447V27.4647C33.447 27.2887 33.295 27.1367 33.119 27.1367Z" fill="#434F58"/>
<path d="M35.0956 27.1367C34.9116 27.1367 34.7676 27.2807 34.7676 27.4647V28.3767H35.4236V27.4647C35.4236 27.2887 35.2716 27.1367 35.0956 27.1367Z" fill="#434F58"/>
<path d="M37.0721 27.1367C36.8881 27.1367 36.7441 27.2807 36.7441 27.4647V28.3767H37.4001V27.4647C37.4001 27.2887 37.2481 27.1367 37.0721 27.1367Z" fill="#434F58"/>
</svg>
