<svg viewBox="0 0 500 500" xmlns="http://www.w3.org/2000/svg"><path d="m481.42 243.79h-385.6a4.65 4.65 0 0 0 -4.64 4.65v86.56a4.65 4.65 0 0 0 4.64 4.65h385.6a4.65 4.65 0 0 0 4.64-4.65v-86.56a4.65 4.65 0 0 0 -4.64-4.65zm-136.33 60.79a12.86 12.86 0 1 1 12.85-12.85 12.82 12.82 0 0 1 -12.85 12.85zm49.14-.05a12.86 12.86 0 1 1 12.85-12.85 12.83 12.83 0 0 1 -12.85 12.85zm46.7 0a12.86 12.86 0 1 1 12.86-12.85 12.82 12.82 0 0 1 -12.86 12.85z" fill="none"/><path d="m481.42 109h-181.42v23.78a28 28 0 0 1 -28 28h-87.51l12 29.48-52.84-29.48h-52.47v39.42a4.64 4.64 0 0 0 4.64 4.64h385.6a4.64 4.64 0 0 0 4.64-4.64v-86.52a4.65 4.65 0 0 0 -4.64-4.68zm-136.33 60.81a12.85 12.85 0 1 1 12.85-12.81 12.82 12.82 0 0 1 -12.85 12.81zm49.14 0a12.86 12.86 0 1 1 12.85-12.86 12.84 12.84 0 0 1 -12.85 12.82zm46.7 0a12.86 12.86 0 1 1 12.86-12.86 12.83 12.83 0 0 1 -12.86 12.82z" fill="none"/><path d="m481.42 378.56h-385.6a4.65 4.65 0 0 0 -4.64 4.65v86.52a4.64 4.64 0 0 0 4.64 4.64h385.6a4.64 4.64 0 0 0 4.64-4.64v-86.52a4.65 4.65 0 0 0 -4.64-4.65zm-136.33 60.79a12.86 12.86 0 1 1 12.85-12.86 12.83 12.83 0 0 1 -12.85 12.86zm49.14-.05a12.86 12.86 0 1 1 12.85-12.86 12.84 12.84 0 0 1 -12.85 12.86zm46.7 0a12.86 12.86 0 1 1 12.86-12.86 12.83 12.83 0 0 1 -12.86 12.86z" fill="none"/><g fill="#434f58"><path d="m440.93 278.82a12.86 12.86 0 1 0 12.86 12.86 12.83 12.83 0 0 0 -12.86-12.86z"/><path d="m481.32 229.76h-385.5a18.76 18.76 0 0 0 -18.68 18.68v86.56a18.76 18.76 0 0 0 18.68 18.68h385.5a18.75 18.75 0 0 0 18.68-18.68v-86.56a18.69 18.69 0 0 0 -18.68-18.68zm4.74 105.24a4.65 4.65 0 0 1 -4.64 4.65h-385.6a4.65 4.65 0 0 1 -4.64-4.65v-86.56a4.65 4.65 0 0 1 4.64-4.65h385.6a4.65 4.65 0 0 1 4.64 4.65z"/><path d="m394.23 278.82a12.86 12.86 0 1 0 12.85 12.86 12.84 12.84 0 0 0 -12.85-12.86z"/><path d="m345.09 278.87a12.86 12.86 0 1 0 12.85 12.86 12.83 12.83 0 0 0 -12.85-12.86z"/><circle cx="440.93" cy="156.91" r="12.85"/><path d="m481.32 95h-181.32v-55.4a28 28 0 0 0 -28-28h-244.22a27.81 27.81 0 0 0 -27.78 28v93.21a28 28 0 0 0 28 28h49.14v39.39a18.76 18.76 0 0 0 18.68 18.68h385.5a18.75 18.75 0 0 0 18.68-18.68v-86.52a18.69 18.69 0 0 0 -18.68-18.68zm-256.91-35.44c7.48-12.14 17-18.26 28.69-18.26a34.27 34.27 0 0 1 6.57.68 28.18 28.18 0 0 1 19.51 14.18c4 6.69 6 14.51 5.89 24a65.52 65.52 0 0 1 -9.52 34.47c-7.37 12.13-16.9 18.25-28.69 18.25a33.66 33.66 0 0 1 -6.58-.68 28.1 28.1 0 0 1 -19.5-14.17c-4-6.69-5.9-14.74-5.9-24.15a64.54 64.54 0 0 1 9.53-34.32zm-47.63-18.26a34.45 34.45 0 0 1 6.58.68 28.39 28.39 0 0 1 19.5 14.18c3.86 6.69 5.9 14.51 5.9 24a65.53 65.53 0 0 1 -9.53 34.47c-7.37 12.13-16.89 18.25-28.68 18.25a33.59 33.59 0 0 1 -6.58-.68 28.14 28.14 0 0 1 -19.51-14.17c-4-6.69-5.89-14.74-5.89-24.15a64.53 64.53 0 0 1 9.52-34.36c7.49-12.1 17.01-18.22 28.69-18.22zm-132.78 104.89c-3.29.23-6.13-2.61-8.51-8.39q-9.34-24-20.07-92.64a8.76 8.76 0 0 1 1.7-8c1.7-2.27 4.31-3.52 7.71-3.75 6.24-.45 9.76 2.5 10.66 8.74 3.75 25.51 7.94 47.05 12.36 64.74l26.76-50.96c2.5-4.65 5.45-7 9.19-7.37 5.33-.34 8.62 3.06 10 10.2 3.06 16.22 6.91 30.05 11.56 41.73q4.77-46.42 16.11-67.13a9.33 9.33 0 0 1 8-5.33 10.43 10.43 0 0 1 7.71 2.5 9.66 9.66 0 0 1 3.82 6.92 10.7 10.7 0 0 1 -1.25 5.89c-4.76 8.73-8.62 23.59-11.79 44-3.06 19.84-4.2 35.38-3.4 46.49a14.33 14.33 0 0 1 -1.48 8 7.74 7.74 0 0 1 -6.46 4.42c-3.18.23-6.46-1.24-9.64-4.53-11.34-11.57-20.41-28.92-27-51.94-7.98 15.7-13.87 27.38-17.61 35.22-7.15 13.82-13.27 20.85-18.37 21.19zm442.06 54a4.64 4.64 0 0 1 -4.64 4.64h-385.6a4.64 4.64 0 0 1 -4.64-4.64v-39.37h52.49l52.84 29.48-12-29.48h87.49a28 28 0 0 0 28-28v-23.82h181.42a4.65 4.65 0 0 1 4.64 4.65z"/><circle cx="345.09" cy="156.96" r="12.85"/><circle cx="394.23" cy="156.91" r="12.85" transform="matrix(.38268343 -.92387953 .92387953 .38268343 98.4 461.08)"/><circle cx="394.23" cy="426.44" r="12.85" transform="matrix(.38268343 -.92387953 .92387953 .38268343 -150.62 627.47)"/><circle cx="345.09" cy="426.49" r="12.85"/><path d="m481.32 364.53h-385.5a18.76 18.76 0 0 0 -18.68 18.68v86.52a18.76 18.76 0 0 0 18.68 18.68h385.5a18.75 18.75 0 0 0 18.68-18.68v-86.52a18.69 18.69 0 0 0 -18.68-18.68zm4.74 105.2a4.64 4.64 0 0 1 -4.64 4.64h-385.6a4.64 4.64 0 0 1 -4.64-4.64v-86.52a4.65 4.65 0 0 1 4.64-4.65h385.6a4.65 4.65 0 0 1 4.64 4.65z"/><circle cx="440.93" cy="426.44" r="12.85"/><path d="m237.56 103.9c1.82 4.76 4.2 7.37 7.15 7.93s6.35-.68 9.86-3.85c4.54-4 7.6-10 9.3-18a55.17 55.17 0 0 0 .91-9.19 30.54 30.54 0 0 0 -2.16-11.11c-1.81-4.76-4.19-7.37-7.14-7.94-4.42-.79-8.62 1.59-12.7 7.6a40.39 40.39 0 0 0 -6.47 14.51 38.82 38.82 0 0 0 -.9 9 30.78 30.78 0 0 0 2.15 11.05z"/><path d="m161 103.9c1.81 4.76 4.2 7.37 7.14 7.93s6.35-.68 9.87-3.85c4.54-4 7.6-10 9.3-18a33 33 0 0 0 .9-9.19 30.73 30.73 0 0 0 -2.15-11.11c-1.81-4.76-4.2-7.37-7.14-7.94-4.43-.79-8.73 1.59-12.7 7.6a40.39 40.39 0 0 0 -6.47 14.51 38.82 38.82 0 0 0 -.9 9 30.78 30.78 0 0 0 2.15 11.05z"/></g><path d="m106.93 141.77c3.18 3.29 6.46 4.76 9.64 4.53a7.74 7.74 0 0 0 6.46-4.42 14.33 14.33 0 0 0 1.48-8c-.8-11.11.34-26.65 3.4-46.49 3.17-20.41 7-35.27 11.79-44a10.7 10.7 0 0 0 1.3-5.94 9.66 9.66 0 0 0 -3.74-6.92 10.43 10.43 0 0 0 -7.76-2.53 9.33 9.33 0 0 0 -8 5.33q-11.5 20.79-16.16 67.16c-4.65-11.68-8.5-25.49-11.56-41.73-1.36-7.14-4.65-10.54-10-10.2-3.74.34-6.69 2.72-9.19 7.37l-26.74 50.91c-4.42-17.69-8.61-39.23-12.36-64.74-.9-6.24-4.42-9.19-10.66-8.74-3.4.23-6 1.48-7.71 3.75a8.76 8.76 0 0 0 -1.7 8q10.73 68.72 20.07 92.64c2.38 5.78 5.22 8.62 8.51 8.39 5.1-.34 11.22-7.37 18.37-21.2 3.74-7.83 9.64-19.51 17.57-35.16 6.58 23.07 15.65 40.42 26.99 51.99z" fill="#fff"/><path d="m144.46 118.07a28.14 28.14 0 0 0 19.54 14.17 33.59 33.59 0 0 0 6.58.68c11.79 0 21.31-6.12 28.68-18.25a65.53 65.53 0 0 0 9.53-34.47c0-9.53-2-17.35-5.9-24a28.39 28.39 0 0 0 -19.53-14.2 34.45 34.45 0 0 0 -6.58-.68c-11.68 0-21.2 6.12-28.69 18.26a64.53 64.53 0 0 0 -9.52 34.36c0 9.39 1.93 17.44 5.89 24.13zm15.31-34.25a40.39 40.39 0 0 1 6.47-14.51c4-6 8.27-8.39 12.7-7.6 2.94.57 5.33 3.18 7.14 7.94a30.73 30.73 0 0 1 2.15 11.11 33 33 0 0 1 -.9 9.19c-1.7 8-4.76 14.06-9.3 18-3.52 3.17-6.8 4.53-9.87 3.85s-5.33-3.17-7.14-7.93a30.78 30.78 0 0 1 -2.15-11.12 38.82 38.82 0 0 1 .9-8.93z" fill="#fff"/><path d="m220.78 118.07a28.1 28.1 0 0 0 19.5 14.17 33.66 33.66 0 0 0 6.58.68c11.79 0 21.32-6.12 28.69-18.25a65.52 65.52 0 0 0 9.52-34.47c.12-9.53-1.92-17.35-5.89-24a28.18 28.18 0 0 0 -19.51-14.2 34.27 34.27 0 0 0 -6.57-.68c-11.68 0-21.21 6.12-28.69 18.26a64.54 64.54 0 0 0 -9.53 34.36c0 9.39 1.93 17.44 5.9 24.13zm15.53-34.25a40.39 40.39 0 0 1 6.47-14.51c4.08-6 8.28-8.39 12.7-7.6 3 .57 5.33 3.18 7.14 7.94a30.54 30.54 0 0 1 2.16 11.11 55.17 55.17 0 0 1 -.91 9.19c-1.7 8-4.76 14.06-9.3 18-3.51 3.17-6.8 4.53-9.86 3.85s-5.33-3.17-7.15-7.93a30.78 30.78 0 0 1 -2.15-11.12 38.82 38.82 0 0 1 .9-8.93z" fill="#fff"/></svg>