<svg viewBox="0 0 500 500" xmlns="http://www.w3.org/2000/svg"><g fill="#0073ec"><path d="m481 183.6a86.4 86.4 0 0 0 -41.6-28.3 151.1 151.1 0 0 0 -279.7-71.5 67.7 67.7 0 0 0 -20.6-3.1 69.2 69.2 0 0 0 -67.4 54.3 95.9 95.9 0 0 0 -71.5 98.5c3 50.8 45.8 90.1 96.7 90.1h121.5v42.5a13.7 13.7 0 0 1 -13.7 13.7h-37.8c-3.4-11.1-3.4 26.9 0 15.7h37.8a29.4 29.4 0 0 0 29.4-29.4v-42.4h26.9v105.6c-10.8 3.3 20.1 1.4 15.7 0v-105.7h26.9v42.7a29.4 29.4 0 0 0 29.4 29.4h29.3c3.4 11.1 3.4-26.9 0-15.7h-29.3a13.7 13.7 0 0 1 -13.7-13.7v-42.7h94.6a86.1 86.1 0 0 0 67.1-140zm-109.9-78.5a8.1 8.1 0 0 1 -5.1 1.8 7.8 7.8 0 0 1 -6.1-2.9 92.5 92.5 0 0 0 -71.4-33.8 7.9 7.9 0 0 1 -7.9-8 7.9 7.9 0 0 1 7.9-7.9 108.5 108.5 0 0 1 83.7 39.5 8.1 8.1 0 0 1 -1.1 11.3z" opacity=".35"/><path d="m269 462.5h-.6a22.5 22.5 0 0 1 -15.7-6.9 22.3 22.3 0 0 1 16.1-37.9h.6a21.5 21.5 0 0 1 15.7 6.9 22.3 22.3 0 0 1 -16.1 37.9z" opacity=".95"/><path d="m155.7 410.3a22.5 22.5 0 1 1 22.5-22.5 22.5 22.5 0 0 1 -22.5 22.5z" opacity=".95"/><circle cx="382.1" cy="387.9" opacity=".95" r="22.5" transform="matrix(.92387953 -.38268343 .38268343 .92387953 -119.3 175.7)"/></g></svg>