<svg viewBox="0 0 500 500" xmlns="http://www.w3.org/2000/svg"><g fill="#434f58"><circle cx="424.68" cy="428.96" r="14.74" transform="matrix(.97325912 -.22971002 .22971002 .97325912 -87.19 109.05)"/><circle cx="314.8" cy="429.01" r="14.74"/><path d="m471 358h-442a21.5 21.5 0 0 0 -21.41 21.38v99.2a21.5 21.5 0 0 0 21.41 21.42h442a21.5 21.5 0 0 0 21.42-21.42v-99.2a21.43 21.43 0 0 0 -21.42-21.38zm5.44 120.61a5.33 5.33 0 0 1 -5.33 5.33h-442.11a5.33 5.33 0 0 1 -5.33-5.33v-99.2a5.33 5.33 0 0 1 5.33-5.35h442.1a5.33 5.33 0 0 1 5.33 5.32z"/><circle cx="371.14" cy="428.96" r="14.74" transform="matrix(.70710678 -.70710678 .70710678 .70710678 -194.61 388.07)"/><path d="m471 203.46h-7.5c-4.69-108.59-90.5-196.02-198.36-203.46a6.22 6.22 0 0 0 -6.73 5.82 6.21 6.21 0 0 0 5.81 6.72 200.07 200.07 0 0 1 186.78 190.92h-11.22a190 190 0 0 0 -379.4 0h-11.18a200.3 200.3 0 0 1 186.73-190.9 6.2 6.2 0 0 0 5.81-6.72 6.22 6.22 0 0 0 -6.74-5.84c-108 7.59-193.51 95-198.49 203.46h-7.51a21.5 21.5 0 0 0 -21.41 21.41v99.2a21.51 21.51 0 0 0 21.41 21.42h442a21.51 21.51 0 0 0 21.42-21.42v-99.2a21.43 21.43 0 0 0 -21.42-21.41zm-377.6-73.46 10.71 6.12a6.27 6.27 0 0 0 6.27-10.86l-10.71-6.12a178.19 178.19 0 0 1 56.33-56.26l6.12 10.7a6.27 6.27 0 1 0 10.85-6.27l-6.27-10.7a174.7 174.7 0 0 1 76.88-20.61v12.35a6.27 6.27 0 0 0 12.54 0v-12.35a174.62 174.62 0 0 1 76.88 20.61l-6.12 10.7a6.27 6.27 0 1 0 10.86 6.27l6.12-10.7a178.16 178.16 0 0 1 56.27 56.27l-10.7 6.12a6.27 6.27 0 0 0 6.27 10.86l10.7-6.12a174.62 174.62 0 0 1 20.65 76.92h-81.32a94.57 94.57 0 0 0 -34-67l10.55-18.2a16.92 16.92 0 0 0 -6.57-23.24 16.7 16.7 0 0 0 -22.48 6.42l-10.55 18.2a94.3 94.3 0 0 0 -32.58-5.66 95.85 95.85 0 0 0 -95.58 89.46h-81.69l-.07-.06a176.87 176.87 0 0 1 20.64-76.85zm203.85 88a47.18 47.18 0 0 1 -93.89 0 12.1 12.1 0 0 0 -11.93-11h-24a83.51 83.51 0 0 1 109.19-72.79l-26.61 46a33 33 0 0 0 .46 66.07 33.33 33.33 0 0 0 27.68-15 6.3 6.3 0 1 0 -10.55-6.88 20.5 20.5 0 1 1 0-22.33 6.32 6.32 0 0 0 11.47-4.74l26.75-46.33a82.45 82.45 0 0 1 27.83 56h-24.47a12 12 0 0 0 -11.93 11zm6.89-106.9a4.27 4.27 0 0 1 5.65-1.68 4.15 4.15 0 0 1 1.69 5.81l-13.31 22.94c-2.9 5-24.93 43.28-28.14 48.63a38.06 38.06 0 0 0 -7.34-4.28zm172.29 213a5.33 5.33 0 0 1 -5.33 5.33h-442.1a5.33 5.33 0 0 1 -5.33-5.33v-99.2a5.33 5.33 0 0 1 5.33-5.35h58.88l-.09-.08h102.87c.16 1.84.46 3.67.77 5.36a59.76 59.76 0 0 0 118.06-5.36h102.72l-.09.08h59a5.33 5.33 0 0 1 5.33 5.32z"/><circle cx="371.14" cy="274.45" r="14.74" transform="matrix(.38268343 -.92387953 .92387953 .38268343 -24.45 512.31)"/><circle cx="424.68" cy="274.45" r="14.74"/><path d="m315 259.77c-1.92.38-3.85.75-5.79 1.09a14.76 14.76 0 1 0 5.79-1.09z"/></g></svg>