<svg viewBox="0 0 500 500" xmlns="http://www.w3.org/2000/svg"><g fill="#434f58"><path d="m374.93 387a15.2 15.2 0 1 0 15.2 15.2 15.17 15.17 0 0 0 -15.2-15.2z"/><path d="m430.16 387a15.2 15.2 0 1 0 15.2 15.2 15.17 15.17 0 0 0 -15.2-15.2z"/><path d="m316.83 387.06a15.2 15.2 0 1 0 15.2 15.2 15.17 15.17 0 0 0 -15.2-15.2z"/><path d="m301.63 242.9a15.2 15.2 0 1 0 15.2-15.19 15.17 15.17 0 0 0 -15.2 15.19z"/><path d="m477.91 329h-455.82a22.17 22.17 0 0 0 -22.09 22.07v102.31a22.18 22.18 0 0 0 22.09 22.09h455.82a22.18 22.18 0 0 0 22.09-22.09v-102.31a22.09 22.09 0 0 0 -22.09-22.07zm5.61 124.39a5.49 5.49 0 0 1 -5.49 5.49h-455.94a5.49 5.49 0 0 1 -5.5-5.49v-102.32a5.49 5.49 0 0 1 5.5-5.49h455.91a5.49 5.49 0 0 1 5.49 5.49z"/><path d="m359.73 242.85a15.2 15.2 0 1 0 15.2-15.2 15.17 15.17 0 0 0 -15.2 15.2z"/><path d="m430.16 258.05a15.2 15.2 0 1 0 -15.2-15.2 15.21 15.21 0 0 0 15.2 15.2z"/><path d="m477.91 169.63h-26a8.3 8.3 0 0 0 0 16.6h26.09a5.49 5.49 0 0 1 5.49 5.49v102.28a5.49 5.49 0 0 1 -5.49 5.49h-455.91a5.5 5.5 0 0 1 -5.5-5.49v-102.28a5.49 5.49 0 0 1 5.5-5.49h26a8.3 8.3 0 1 0 0-16.6h-26a22.15 22.15 0 0 0 -22.09 22.09v102.28a22.15 22.15 0 0 0 22.09 22.09h455.82a22.15 22.15 0 0 0 22.09-22.09v-102.28a22.1 22.1 0 0 0 -22.09-22.09z"/><path d="m183.19 80.29a7 7 0 0 0 7.08-7.07v-27.84l62.73 55.56a3 3 0 0 0 -.93.81l-61.82 61.82v-46.39a7.08 7.08 0 1 0 -14.15 0v8.58h-36.4a7.08 7.08 0 1 0 0 14.15h36.42v40.71a7 7 0 0 0 7.07 7.08h223.28c.11-.35.23-.35.34-.35a.41.41 0 0 0 .35-.12.45.45 0 0 0 .35-.11c.12 0 .23-.12.35-.12s.23-.12.35-.12.23-.11.34-.11.23-.12.35-.12.23-.11.35-.11.23-.12.35-.24.23-.11.34-.23l.24-.23c.11-.12.34-.23.46-.35l.12-.11.11-.12a1.66 1.66 0 0 0 .35-.46c.12-.12.12-.24.23-.24s.12-.23.23-.23.12-.23.24-.35a.43.43 0 0 1 .11-.23.41.41 0 0 0 .12-.35c0-.11.11-.23.11-.34s.12-.24.12-.35.12-.23.12-.35.11-.23.11-.35.12-.23.12-.35a.42.42 0 0 1 .11-.34v-151.71a7 7 0 0 0 -7.07-7.08h-223.85a.41.41 0 0 0 -.35.12.45.45 0 0 0 -.35.11c-.12 0-.23.12-.35.12s-.23.12-.35.12-.23.11-.34.11-.24.12-.35.12a.39.39 0 0 0 -.23.11c-.12.12-.24.12-.35.24s-.12.11-.23.23-.24.11-.35.23-.23.12-.23.23l-.24.23-.23.24-.11.11a.12.12 0 0 1 -.12.12c-.12.11-.12.23-.23.34l-.23.24c-.12.11-.12.23-.24.34a.43.43 0 0 1 -.11.24.41.41 0 0 0 -.12.35c0 .11-.11.23-.11.34s-.12.23-.12.35-.12.23-.12.35-.11.23-.11.35-.12.23-.12.34a.44.44 0 0 1 -.11.35v44.66a7 7 0 0 0 7.07 7.07zm17.05 93.14 61.82-61.82a8.85 8.85 0 0 0 1.28-1.63l26.33 23.32a7.07 7.07 0 0 0 9.16.11l26.91-22.85a6.18 6.18 0 0 0 .81 1l61.82 61.82zm198.11-136.86v126.77l-61.82-61.82-.12-.12 46.51-39.4a7.08 7.08 0 0 0 -9.16-10.79l-79.34 67.39-92.67-82z"/><path d="m94.23 102.91h119.12a7.08 7.08 0 0 0 0-14.15h-119.12a7.08 7.08 0 0 0 0 14.15z"/><path d="m106.53 64.05h53.47a7.08 7.08 0 1 0 0-14.15h-53.47a7.08 7.08 0 1 0 0 14.15z"/><path d="m94.23 169.6h51.77a7 7 0 0 0 7.08-7.07 7.11 7.11 0 0 0 -7.08-7.08h-51.77a7.08 7.08 0 0 0 0 14.15z"/></g></svg>