<svg viewBox="0 0 500 500" xmlns="http://www.w3.org/2000/svg"><g fill="#434f58"><path d="m437 148.92a6.51 6.51 0 0 0 2.69.59 6 6 0 0 0 5.48-3.38 6 6 0 0 0 -2.69-8.08c-14.26-7.08-40.87-7.17-42-7.17a6.08 6.08 0 1 0 0 12.16c6.93-.04 26.87 1.09 36.52 5.88z"/><path d="m243.05 70.47c0-.2.09-.4.29-.4a192.7 192.7 0 0 1 39.78-1.89c19 1.29 32.89 6.08 41.06 14.25a6.14 6.14 0 0 0 8.67 0 6 6 0 0 0 .1-8.67c-23.12-23.12-71.56-18.76-91.3-15.76a12.6 12.6 0 0 0 -10.77 12.56v14.07a6.09 6.09 0 0 0 12.17 0z"/><path d="m86 255.27a13.4 13.4 0 0 1 7.47-12.06l20.59-10.21 7.08 6.78a25.78 25.78 0 0 0 35.49 0l7.07-6.78 6.68 3.29a31.77 31.77 0 0 0 -4.88 17v31.71a120.4 120.4 0 0 1 12.16 7.3v-38.92a20.14 20.14 0 0 1 13.15-18.84l39.68-14.45 16.51 24.81a12.59 12.59 0 0 0 9.27 5.59c.4 0 .8.1 1.3.1a12.59 12.59 0 0 0 9-3.69l10.07-10.07v63.79a6.08 6.08 0 1 0 12.16 0v-63.79l10.06 10.07a12.63 12.63 0 0 0 9 3.69 6.11 6.11 0 0 0 1.29-.1 12.57 12.57 0 0 0 9.27-5.59l16.58-24.81 39.67 14.45a20.15 20.15 0 0 1 13.16 18.84v47.14a6.08 6.08 0 0 0 12.16 0v-47.14a32.62 32.62 0 0 0 -9.12-22.38l1.49-.4a27.33 27.33 0 0 0 5.68-2.09l15.65 15.65v56.31a6.08 6.08 0 1 0 12.16 0v-56.36l15.55-15.55a11.27 11.27 0 0 0 2.59 1l25.32 7.18a13.56 13.56 0 0 1 9.77 13v50.63a6.08 6.08 0 1 0 12.16 0v-50.68c.5-11.16-7.18-21.43-18.24-24.52l-25.32-7.17a2.56 2.56 0 0 1 -1.89-2.49v-8.51a44.65 44.65 0 0 0 5.88-4.79 45.21 45.21 0 0 0 13.75-32.59v-11.62l2.5-4.89a38.9 38.9 0 0 0 4.08-17.35v-31.5a6 6 0 0 0 -6.08-6.08h-58.92a38.92 38.92 0 0 0 -38.87 38.87v.4a33.15 33.15 0 0 0 3.39 14.46l3.09 6.28v10a47.47 47.47 0 0 0 19.63 38.58v8.87c0 1.4 0 1.89-5.08 3.39l-12.36 3.49-35.68-13a6 6 0 0 0 -1.7-4.69l-11.36-12v-20.09c1.2-1 2.39-2 3.59-3.09a71.89 71.89 0 0 0 22.62-52.23v-16a70 70 0 0 0 6.58-29.7v-65.64a6 6 0 0 0 -6.07-6.08h-91.6a58.59 58.59 0 0 0 -58.51 58.51v13.06a69.71 69.71 0 0 0 6.58 29.7v13.86a74.79 74.79 0 0 0 26.21 57.11v20.53l-11.36 12a6.33 6.33 0 0 0 -1.69 4.68l-37.68 13.66a30.65 30.65 0 0 0 -7.58 4l-5.88-3c17.64-7.67 23.23-18.44 23.43-18.94a6 6 0 0 0 0-5.48c-4.39-8.87-5-25-5.39-38-.1-4.29-.3-8.38-.5-12.07-2.09-29.4-24.42-51.53-51.93-51.53s-49.83 22.12-51.88 51.52c-.3 3.69-.4 7.78-.5 12.07-.39 12.95-1 29.2-5.38 38a5.9 5.9 0 0 0 0 5.48c.3.5 5.88 11.27 23.43 18.94l-16.45 8.18a25.67 25.67 0 0 0 -14.26 23v22a117.64 117.64 0 0 1 12.16-3.28zm334.17-22.27-13.95-13.95a20.66 20.66 0 0 0 .39-3.59v-2.59a41.19 41.19 0 0 0 12.16 2.13h1.4a46.53 46.53 0 0 0 13.46-2v2.49a23 23 0 0 0 .39 3.59zm-33.19-65v-11.41a5.91 5.91 0 0 0 -.6-2.69l-3.79-7.58a20.15 20.15 0 0 1 -2.09-9v-.32a26.67 26.67 0 0 1 26.61-26.62h52.73v25.42a27.32 27.32 0 0 1 -2.79 11.86l-3.05 6.14a6.56 6.56 0 0 0 -.6 2.69v13.06a33.5 33.5 0 0 1 -10.16 23.92 32.91 32.91 0 0 1 -24.13 9.37c-17.78-.5-32.11-16.15-32.11-34.79zm-128.98 70.23a.44.44 0 0 1 -.3.1c-.2 0-.3-.1-.3-.2l-19-28.51 6.08-6.48 28.91 19.74zm24.82-23.63-33.2-22.6v-11.49a67.06 67.06 0 0 0 28.38 8.18c1.6.1 3.19.2 4.79.2a71.44 71.44 0 0 0 33.09-8.08v11.19zm25.51 23.53c0 .1-.1.2-.3.2a.4.4 0 0 1 -.29-.1l-15.35-15.35 28.9-19.74 6.08 6.48zm-84.82-123.13v-15.12a6.6 6.6 0 0 0 -.6-2.7 58.18 58.18 0 0 1 -6-25.71v-13.06a46.28 46.28 0 0 1 46.25-46.25h85.54v59.31a58.18 58.18 0 0 1 -6 25.71 6 6 0 0 0 -.6 2.7v17.44a58.69 58.69 0 0 1 -18.74 43.26 60.23 60.23 0 0 1 -4.68 4l-.1.1a59.3 59.3 0 0 1 -39.67 11.86c-31.08-2.01-55.4-29.02-55.4-61.54zm-75.36 116a13.5 13.5 0 0 1 -18.64 0l-5.68-5.38a12.37 12.37 0 0 0 1.5-6v-6.48a46.61 46.61 0 0 0 13.55 2.09 44 44 0 0 0 13.56-2.09v6.48a12.48 12.48 0 0 0 1.49 6zm36.09-29.11c-2.4 2.9-8.18 8.38-19.64 12.56v-7.27a45.37 45.37 0 0 0 16.15-19.94 64 64 0 0 0 3.49 14.6zm-85.53-39.82c.1-4.18.3-8.17.5-11.56a45.63 45.63 0 0 1 12.36-28.51 38 38 0 0 1 54.62 0 45.52 45.52 0 0 1 12.36 28.51c.2 3.39.4 7.38.5 11.56v1.1c-6.68-10.27-16.94-17.84-30.2-22.13a75.53 75.53 0 0 0 -23.32-3.69 5.67 5.67 0 0 0 -4.19 1.9l-11.06 11.46a6.13 6.13 0 0 0 8.87 8.47l9.17-9.57c7.87.4 33.39 3.39 43.26 25.12a33.14 33.14 0 0 1 -65.89-5.08 6 6 0 0 0 -6.08-6.08 3.4 3.4 0 0 0 -1 .1 8.6 8.6 0 0 1 .1-1.6zm-5.18 39.58a64.24 64.24 0 0 0 3.47-14.65 45.93 45.93 0 0 0 16.15 19.94v7.37c-11.45-4.09-17.15-9.57-19.62-12.66z"/><circle cx="390.08" cy="377.45" r="13.24"/><circle cx="438.18" cy="377.45" r="13.24"/><circle cx="339.48" cy="377.5" r="13.24"/><path d="m479.78 313.68h-264.13a7.15 7.15 0 0 0 -5.94 11.13l.1.15a7.11 7.11 0 0 0 5.94 3.17h264.13a4.79 4.79 0 0 1 4.78 4.79v89.08a4.78 4.78 0 0 1 -4.78 4.78h-250.88a7.18 7.18 0 0 0 -6.73 4.75l-.06.15a7.14 7.14 0 0 0 6.74 9.55h250.83a19.28 19.28 0 0 0 19.22-19.23v-89.08a19.25 19.25 0 0 0 -19.22-19.24z"/><path d="m211.28 347.88a109.69 109.69 0 0 0 -23.52-34.78 112.08 112.08 0 0 0 -34.9-23.39 106.39 106.39 0 0 0 -42.54-8.63 106.31 106.31 0 0 0 -42.53 8.63 109.06 109.06 0 0 0 -58.17 58.17 109.14 109.14 0 0 0 0 85.07 112 112 0 0 0 23.38 34.9 109.57 109.57 0 0 0 34.78 23.52 106.31 106.31 0 0 0 42.54 8.63 106.39 106.39 0 0 0 42.54-8.63 110.06 110.06 0 0 0 58.42-58.37 109.14 109.14 0 0 0 0-85.07zm-7.13 82.12a102.93 102.93 0 0 1 -54.3 54.29 98.46 98.46 0 0 1 -39.53 8 98.46 98.46 0 0 1 -39.53-8 102.87 102.87 0 0 1 -54.29-54.29 101.57 101.57 0 0 1 0-79.07 101.83 101.83 0 0 1 21.89-32.27 104.46 104.46 0 0 1 32.4-21.77 98.47 98.47 0 0 1 39.53-8 98.47 98.47 0 0 1 39.53 8 104.23 104.23 0 0 1 32.4 21.77 101.85 101.85 0 0 1 21.9 32.27 101.69 101.69 0 0 1 0 79.07z"/><path d="m17.25 390.41a93.5 93.5 0 0 0 3.75 26.52 90.74 90.74 0 0 0 10.76 23.65 95.52 95.52 0 0 0 16.64 19.51 87.22 87.22 0 0 0 21.39 14.14l-44.79-121.1a92.22 92.22 0 0 0 -7.75 37.28z"/><path d="m84.05 480a107.11 107.11 0 0 0 12.89 2.76 90.09 90.09 0 0 0 44.41-4.51l-29.28-78.81z"/><path d="m193.14 352.26c0 1.75-.09 3.54-.25 5.38a114.93 114.93 0 0 1 -5.26 24.52q-3.75 11-7.25 21-1.5 4.26-4.76 14t-7 20.4q-3.75 10.64-7 20.14t-4.75 13.51a87.72 87.72 0 0 0 19-14.64 98 98 0 0 0 14.64-19 94.32 94.32 0 0 0 9.49-22.26 93.57 93.57 0 0 0 -7.38-68.43 30.35 30.35 0 0 1 .52 5.38z"/><path d="m163.49 423.94q2.63-9 4.38-14.76 2-6.51 3-10.51a47.44 47.44 0 0 0 2.13-17.39 31.37 31.37 0 0 0 -4.13-14.13 84.09 84.09 0 0 0 -4.38-7.51 70 70 0 0 1 -5.13-9.63 39.85 39.85 0 0 1 -3-10.26 14.93 14.93 0 0 1 1.5-9.38q3.25-5.76 7.25-7.38a16.49 16.49 0 0 1 8.26-1.13 93.52 93.52 0 0 0 -28.65-18 91.06 91.06 0 0 0 -34.4-6.51 90.57 90.57 0 0 0 -44.91 11.39 93 93 0 0 0 -32.9 30.39q6 .25 13.51 0a155.66 155.66 0 0 0 16.51-1.5 4.38 4.38 0 0 1 2.76 1 4 4 0 0 1 1.5 2.51q.49 3.5-3.51 4a40.6 40.6 0 0 1 -5.25.62c-1.67.09-3.42.21-5.25.38l34 100.33 20.52-60.55-14.74-39.54c-3.17-.33-5.63-.63-7.38-.88s-2.71-.37-2.88-.37a4 4 0 0 1 -2.5-1.5 2.74 2.74 0 0 1 -.5-2.75 3.9 3.9 0 0 1 1.5-2.51 2.78 2.78 0 0 1 2.75-.5l3.5.5 9.89.75a77.46 77.46 0 0 0 15.38 0q5.5-.75 20.27-1.5a4.33 4.33 0 0 1 2.75 1 3.94 3.94 0 0 1 1.5 2.51c.33 2.33-.83 3.66-3.5 4a40.81 40.81 0 0 1 -5.25.62c-1.67.09-3.34.21-5 .38l33.78 100.33q4-13.51 6.62-22.52z"/></g></svg>