<svg viewBox="0 0 500 500" xmlns="http://www.w3.org/2000/svg"><path d="m257.1 0a95.6 95.6 0 0 1 95.6 95.6v4.4h-35.5v-4.4a60.2 60.2 0 0 0 -120.3 0v4.4h-35.5v-4.4a95.6 95.6 0 0 1 95.7-95.6h-160.1v228.7h22v-6.3h-9.4a4.7 4.7 0 0 1 -4.7-4.7v-20.3a4.7 4.7 0 0 1 4.7-4.7h9.4v-14.2h-9.4a4.7 4.7 0 0 1 -4.7-4.7v-20.3a4.7 4.7 0 0 1 4.7-4.7h9.4v-34.7a14.1 14.1 0 0 1 14.1-14.1h247.9a14.1 14.1 0 0 1 14.1 14.1v114.6h7.9v-228.7z" fill="none"/><g fill="#0073ec"><path d="m381 100h-247.9a14.1 14.1 0 0 0 -14.1 14.1v20.6h63.2a14 14 0 0 1 10 4.1 14.4 14.4 0 0 1 4.1 10v79.9h198.8v-114.6a14.1 14.1 0 0 0 -14.1-14.1z" opacity=".95"/><path d="m161.4 95.6v4.4h35.5v-4.4a60.2 60.2 0 0 1 120.3 0v4.4h35.5v-4.4a95.7 95.7 0 0 0 -191.3 0z" opacity=".35"/><path d="m182.2 173.8v-20.3a4.7 4.7 0 0 0 -4.7-4.7h-67.9a4.7 4.7 0 0 0 -4.7 4.7v20.3a4.7 4.7 0 0 0 4.7 4.7h67.9a4.7 4.7 0 0 0 4.7-4.7zm-55.4-10.1a7 7 0 0 1 -7 7 7 7 0 0 1 -7.1-7 7.1 7.1 0 0 1 7.1-7.1 7 7 0 0 1 7 7.1zm47.6 0a7 7 0 0 1 -7.1 7 7 7 0 0 1 -7-7 7 7 0 0 1 7-7.1 7.1 7.1 0 0 1 7.1 7.1z" opacity=".95"/><path d="m167.3 156.6a7 7 0 0 0 -7 7.1 7 7 0 0 0 7 7 7 7 0 0 0 7.1-7 7.1 7.1 0 0 0 -7.1-7.1z" opacity=".35"/><rect height="14.11" opacity=".35" rx="7.1" width="14.1" x="112.7" y="156.6"/><path d="m182.2 217.7v-20.3a4.7 4.7 0 0 0 -4.7-4.7h-67.9a4.7 4.7 0 0 0 -4.7 4.7v20.3a4.7 4.7 0 0 0 4.7 4.7h67.9a4.7 4.7 0 0 0 4.7-4.7zm-55.4-10.2a7 7 0 0 1 -7 7.1 7.1 7.1 0 0 1 -7.1-7.1 7 7 0 0 1 7.1-7 7 7 0 0 1 7 7zm47.6 0a7.1 7.1 0 0 1 -7.1 7.1 7 7 0 0 1 -7-7.1 7 7 0 0 1 7-7 7 7 0 0 1 7.1 7z" opacity=".95"/><path d="m167.3 200.5a7 7 0 0 0 -7 7 7 7 0 0 0 7 7.1 7.1 7.1 0 0 0 7.1-7.1 7 7 0 0 0 -7.1-7z" opacity=".35"/><rect height="14.11" opacity=".35" rx="7.1" width="14.1" x="112.7" y="200.5"/><path d="m452.4 228.4h-404.8a19.6 19.6 0 0 0 -19.6 19.6v90.9a19.7 19.7 0 0 0 19.6 19.6h404.8a19.7 19.7 0 0 0 19.6-19.6v-90.9a19.6 19.6 0 0 0 -19.6-19.6z" opacity=".35"/><path d="m452.4 369.9h-404.8a19.6 19.6 0 0 0 -19.6 19.6v90.9a19.6 19.6 0 0 0 19.6 19.6h404.8a19.6 19.6 0 0 0 19.6-19.6v-90.9a19.6 19.6 0 0 0 -19.6-19.6z" opacity=".35"/><path d="m309.4 306.9a13.5 13.5 0 1 1 13.5-13.4 13.4 13.4 0 0 1 -13.5 13.4zm51.6 0a13.5 13.5 0 1 1 13.5-13.5 13.4 13.4 0 0 1 -13.5 13.5zm49 0a13.5 13.5 0 1 1 13.5-13.5 13.4 13.4 0 0 1 -13.5 13.5z" opacity=".95"/><path d="m309.4 448.5a13.5 13.5 0 1 1 13.5-13.5 13.4 13.4 0 0 1 -13.5 13.5zm51.6-.1a13.5 13.5 0 1 1 13.5-13.5 13.4 13.4 0 0 1 -13.5 13.5zm49 0a13.5 13.5 0 1 1 13.5-13.5 13.4 13.4 0 0 1 -13.5 13.5z" opacity=".95"/><path d="m177.5 222.4h-58.5v6h77.3v-79.6a14.4 14.4 0 0 0 -4.1-10 14 14 0 0 0 -10-4.1h-63.2v14.1h58.5a4.7 4.7 0 0 1 4.7 4.7v20.3a4.7 4.7 0 0 1 -4.7 4.7h-58.5v14.2h58.5a4.7 4.7 0 0 1 4.7 4.7v20.3a4.7 4.7 0 0 1 -4.7 4.7z" opacity=".35"/></g></svg>