<svg viewBox="0 0 500 500" xmlns="http://www.w3.org/2000/svg"><path d="m442.8 427.69a15 15 0 1 1 -15-15 15 15 0 0 1 15 15zm-69.5-15a15 15 0 1 0 15 15 15 15 0 0 0 -15-15zm-57.35.06a15 15 0 1 0 15 15 15 15 0 0 0 -14.95-15zm180.78-35.52v101a21.89 21.89 0 0 1 -21.8 21.8h-449.86a21.89 21.89 0 0 1 -21.8-21.8v-101a21.88 21.88 0 0 1 21.8-21.79h449.86a21.81 21.81 0 0 1 21.8 21.79zm-16.27 0a5.42 5.42 0 0 0 -5.42-5.42h-450a5.42 5.42 0 0 0 -5.42 5.42v101a5.42 5.42 0 0 0 5.42 5.42h449.96a5.42 5.42 0 0 0 5.42-5.42zm-54-208.49a7.45 7.45 0 0 0 3 .68 6.84 6.84 0 0 0 6.21-3.84 6.73 6.73 0 0 0 -3.05-9.15c-16.15-8-46.31-8.13-47.55-8.13a6.89 6.89 0 1 0 0 13.78c7.86 0 30.45 1.24 41.41 6.66zm-411.55 171.79v-51.28a29.1 29.1 0 0 1 16.15-26.09l18.63-9.26c-19.88-8.7-26.2-20.9-26.54-21.46a6.68 6.68 0 0 1 0-6.21c5-9.94 5.65-28.35 6.1-43 .11-4.86.23-9.49.56-13.67 2.38-33.32 27.68-58.39 58.85-58.39s56.47 25.07 58.84 58.39c.23 4.18.45 8.81.57 13.67.45 14.68 1.13 33 6.1 43a6.74 6.74 0 0 1 0 6.21c-.23.56-6.55 12.76-26.55 21.46l6.67 3.39a34.67 34.67 0 0 1 8.58-4.52l42.7-15.47a7.17 7.17 0 0 1 1.92-5.31l12.87-13.56v-23.26a84.75 84.75 0 0 1 -29.7-64.72v-15.7a79.05 79.05 0 0 1 -7.46-33.66v-14.79a66.4 66.4 0 0 1 66.3-66.3h103.8a6.85 6.85 0 0 1 6.89 6.89v74.32a79.41 79.41 0 0 1 -7.46 33.65v18.19a81.42 81.42 0 0 1 -25.64 59.18c-1.35 1.24-2.71 2.37-4.06 3.5v22.82l12.87 13.55a6.76 6.76 0 0 1 1.92 5.31l40.44 14.68 14-4c5.76-1.7 5.76-2.26 5.76-3.84v-10a53.79 53.79 0 0 1 -22.25-43.71v-11.3l-3.5-7.11a37.59 37.59 0 0 1 -3.84-16.38v-.45a44.11 44.11 0 0 1 44.05-44.05h66.75a6.85 6.85 0 0 1 6.89 6.89v35.69a44.06 44.06 0 0 1 -4.63 19.65l-2.83 5.52v13.21a51.22 51.22 0 0 1 -15.58 36.93 50 50 0 0 1 -6.67 5.43v9.6a2.92 2.92 0 0 0 2.15 2.82l28.69 8.13c12.54 3.5 21.23 15.14 20.67 27.79v57.39a6.89 6.89 0 0 1 -13.78 0v-57.37a15.36 15.36 0 0 0 -11.07-14.69l-28.69-8.13a13 13 0 0 1 -2.93-1.13l-17.62 17.62v63.81a6.89 6.89 0 0 1 -13.78 0v-63.81l-17.74-17.73a30.72 30.72 0 0 1 -6.43 2.37l-1.7.45a37 37 0 0 1 10.28 25.41v53.43a6.89 6.89 0 0 1 -13.78 0v-53.43a22.81 22.81 0 0 0 -14.91-21.34l-44.95-16.38-18.75 28.12a14.21 14.21 0 0 1 -10.5 6.33 7.18 7.18 0 0 1 -1.47.11 14.29 14.29 0 0 1 -10.17-4.18l-11.4-11.4v72.28a6.89 6.89 0 0 1 -13.78 0v-72.28l-11.41 11.4a14.25 14.25 0 0 1 -10.16 4.18c-.57 0-1-.11-1.47-.11a14.25 14.25 0 0 1 -10.51-6.33l-18.75-28.12-44.95 16.38a22.82 22.82 0 0 0 -14.91 21.34v53.43a6.89 6.89 0 1 1 -13.77 0v-53.43a36 36 0 0 1 5.53-19.31l-7.57-3.73-8 7.68a29.21 29.21 0 0 1 -40.21 0l-8-7.68-23.41 11.52a15.19 15.19 0 0 0 -8.47 13.67v51.28a6.89 6.89 0 1 1 -13.78 0zm408.18-92.28a24.37 24.37 0 0 1 -.45-4.06v-2.83a52.4 52.4 0 0 1 -15.25 2.26h-1.58a46.21 46.21 0 0 1 -13.81-2.37v2.94a22.92 22.92 0 0 1 -.45 4.06l15.81 15.81zm-16.94-18.41a37.29 37.29 0 0 0 27.33-10.61 37.94 37.94 0 0 0 11.52-27.11v-14.8a7.36 7.36 0 0 1 .68-3l3.5-7a31 31 0 0 0 3.16-13.44v-28.88h-59.75a30.22 30.22 0 0 0 -30.15 30.16v.45a22.75 22.75 0 0 0 2.37 10.16l4.29 8.59a6.74 6.74 0 0 1 .68 3.05v13c0 21.13 16.22 38.87 36.37 39.43zm-165.15 22.7-32.75-22.36-6.89 7.34 21.64 32.3c0 .12.11.23.34.23a.53.53 0 0 0 .34-.11zm48.23-35v-12.66a81 81 0 0 1 -37.5 9.15c-1.81 0-3.61-.11-5.42-.23a75.87 75.87 0 0 1 -32.19-9.26v13l37.61 25.64zm13 20-6.89-7.34-32.76 22.36 17.4 17.4a.49.49 0 0 0 .34.11c.22 0 .33-.11.33-.23zm-54.88-37.54a67.11 67.11 0 0 0 45-13.44l.11-.11a65.81 65.81 0 0 0 5.31-4.52 66.53 66.53 0 0 0 21.23-49v-19.76a6.74 6.74 0 0 1 .68-3 66 66 0 0 0 6.73-29.17v-67.22h-96.91a52.45 52.45 0 0 0 -52.41 52.41v14.81a66 66 0 0 0 6.78 29.14 7.49 7.49 0 0 1 .68 3v17.17c0 36.85 27.56 67.46 62.8 69.69zm-141.64 55.59a14 14 0 0 1 -1.69-6.77v-7.34a49.69 49.69 0 0 1 -15.36 2.37 53 53 0 0 1 -15.36-2.37v7.34a14 14 0 0 1 -1.7 6.77l6.44 6.1a15.28 15.28 0 0 0 21.12 0zm30.39-43.48a51.45 51.45 0 0 1 -18.3 22.59v8.24c13-4.74 19.54-10.95 22.25-14.23a72.85 72.85 0 0 1 -3.95-16.6zm-93.1-26.66a3.94 3.94 0 0 1 1.13-.11 6.85 6.85 0 0 1 6.89 6.89 37.54 37.54 0 0 0 74.68 5.77c-11.18-24.62-40.09-28-49-28.46l-10.4 10.83a7 7 0 1 1 -10.06-9.6l12.54-13a6.45 6.45 0 0 1 4.74-2.14 85.61 85.61 0 0 1 26.48 4.19c15 4.85 26.66 13.44 34.23 25.07v-1.24c-.12-4.75-.34-9.26-.57-13.1a51.62 51.62 0 0 0 -14-32.31 43.11 43.11 0 0 0 -61.9 0 51.62 51.62 0 0 0 -14 32.31c-.23 3.84-.45 8.35-.57 13.1a9.89 9.89 0 0 0 -.19 1.8zm16.49 57.38v-8.36a52 52 0 0 1 -18.3-22.59 72.94 72.94 0 0 1 -3.95 16.61c2.85 3.51 9.29 9.71 22.28 14.34zm147.17-163c0-.22.11-.45.33-.45a217.82 217.82 0 0 1 45.07-2.15c21.57 1.47 37.27 6.89 46.53 16.16a7 7 0 0 0 9.83 0 6.86 6.86 0 0 0 .11-9.83c-26.2-26.2-81.09-21.23-103.46-17.85a14.27 14.27 0 0 0 -12.16 14.29v15.89a6.89 6.89 0 1 0 13.78 0z" fill="#434f58"/></svg>