<svg xmlns="http://www.w3.org/2000/svg" viewBox="0 0 500 500"><title>vps-hosting</title><path d="M371.6,307.6A11.6,11.6,0,1,0,360,319.2,11.6,11.6,0,0,0,371.6,307.6Z" fill="#434f58"/><path d="M371.6,185.8A11.6,11.6,0,1,0,360,197.4,11.6,11.6,0,0,0,371.6,185.8Z" fill="#434f58"/><circle cx="446.6" cy="307.5" r="11.6" transform="translate(-58.7 110.8) rotate(-13.3)" fill="#434f58"/><path d="M483.1,251.6l-170.3.3a6.3,6.3,0,0,0-6.2,6.1h0a6.2,6.2,0,0,0,6.2,6.5l170.4-.3a4.2,4.2,0,0,1,4.2,4.2v78.2a4.2,4.2,0,0,1-4.2,4.2H134.8a4.2,4.2,0,0,1-4.2-4.2l-.4-19.1a6.4,6.4,0,0,0-5.6-6.3h-.1a6.3,6.3,0,0,0-6.9,6.3l.3,19.1a16.9,16.9,0,0,0,16.9,16.8H483.1A16.9,16.9,0,0,0,500,346.7V268.5A16.9,16.9,0,0,0,483.1,251.6Z" fill="#434f58"/><circle cx="404.4" cy="307.5" r="11.6" transform="translate(-59.8 101.1) rotate(-13.3)" fill="#434f58"/><circle cx="446.6" cy="185.8" r="11.6" fill="#434f58"/><circle cx="404.4" cy="185.8" r="11.6" fill="#434f58"/><path d="M483.1,373.4H134.8a16.9,16.9,0,0,0-16.9,16.9v78.1a16.9,16.9,0,0,0,16.9,16.9H483.1A16.9,16.9,0,0,0,500,468.4V390.3A16.9,16.9,0,0,0,483.1,373.4Zm4.3,95a4.8,4.8,0,0,1-.7,2.4l-.5.6a4.2,4.2,0,0,1-3,1.2H134.8a4.2,4.2,0,0,1-4.2-4.2V390.3a3.9,3.9,0,0,1,1.2-3,4.1,4.1,0,0,1,3-1.2H483.2a4.7,4.7,0,0,1,1.7.3l1.2.8h.1l.5.6a4.8,4.8,0,0,1,.7,2.4Z" fill="#434f58"/><path d="M404.4,417.7A11.6,11.6,0,1,0,416,429.3,11.6,11.6,0,0,0,404.4,417.7Z" fill="#434f58"/><path d="M360,417.8a11.6,11.6,0,1,0,11.6,11.6A11.5,11.5,0,0,0,360,417.8Z" fill="#434f58"/><path d="M446.6,417.7a11.6,11.6,0,1,0,11.6,11.6A11.6,11.6,0,0,0,446.6,417.7Z" fill="#434f58"/><path d="M483.1,129.8l-168.8.3a5.5,5.5,0,0,0-5.5,5.4h0v1.8a5.4,5.4,0,0,0,5.4,5.4l169-.3a4.2,4.2,0,0,1,4.2,4.2v78.2a4.2,4.2,0,0,1-4.2,4.2l-170.5.3a5.4,5.4,0,0,0-5.4,5.3v1.8a5.4,5.4,0,0,0,5.4,5.6l165-.3A22.4,22.4,0,0,0,500,219.5V146.7A16.9,16.9,0,0,0,483.1,129.8Z" fill="#434f58"/><path d="M154,309.3H261.1c17-.1,33-12.6,33.5-29.1.8-31.1,0-124.9,0-124.9a33.5,33.5,0,0,0-33.5-33.5V104.5l38.2-38.2h.1a19.4,19.4,0,0,0,8.6,2,20.2,20.2,0,1,0-18.1-11.4h-.1L249.7,97a6.3,6.3,0,0,0-2,4.7v20.1H234.3V96.1a6.7,6.7,0,0,0-13.4,0v25.7H207.5v-47a20.1,20.1,0,1,0-25.6-12.2,19.9,19.9,0,0,0,12.3,12.2v47H180.8V96.1a6.7,6.7,0,0,0-13.4,0v25.7H154V74.9a6.7,6.7,0,0,0-2-4.7L125.2,43.4h0a19.7,19.7,0,0,0,2-8.6,20.1,20.1,0,1,0-20.1,20,18.1,18.1,0,0,0,8.6-2h.1l24.8,24.8v44.1a33.5,33.5,0,0,0-33.5,33.5h-24L65,137.2h-.1a21.4,21.4,0,0,0,2.1-8.6,20.1,20.1,0,1,0-20.1,20.1,19.7,19.7,0,0,0,8.6-2h0l20.1,20.1a6.7,6.7,0,0,0,4.7,2h26.8v13.4H67a6.8,6.8,0,0,0-4.2,1.4L33.2,207.2a19.9,19.9,0,0,0-13.1-5.1,20.1,20.1,0,1,0,20.1,20.1,18.7,18.7,0,0,0-.4-3.2l29.5-23.6h37.8v13.4H87a6.7,6.7,0,0,0,0,13.4h20.1v13.4H60.3a6.7,6.7,0,1,0,0,13.4h46.8v13.4H73.6a6.5,6.5,0,0,0-5.5,3L42,304.5a21,21,0,0,0-8.5-1.9A20.2,20.2,0,1,0,51.6,314l.9-1,24.7-37.2h29.9a33.6,33.6,0,0,0,33.5,33.5ZM304.2,42.6a7,7,0,0,1,3.8-1.1,5.8,5.8,0,0,1,2.6.5,6.7,6.7,0,0,1,4.1,6.2,6.6,6.6,0,0,1-3.4,5.7,6.3,6.3,0,0,1-3.3.9,7,7,0,0,1-3.8-1.1,6.8,6.8,0,0,1,0-11.1ZM110.9,40.3a7.1,7.1,0,0,1-3.8,1.2,6.7,6.7,0,1,1,0-13.4,7,7,0,0,1,3.8,1.1,7,7,0,0,1,2.9,5.6A6.8,6.8,0,0,1,110.9,40.3ZM50.6,134a6.1,6.1,0,0,1-3.7,1.2,6.7,6.7,0,0,1-6.7-6.7,6.5,6.5,0,0,1,1.9-4.7c.1-.1.2-.1.2-.2a7.1,7.1,0,0,1,1.4-1,6.9,6.9,0,0,1,3.2-.8,6.7,6.7,0,0,1,3.7,1.1,6.8,6.8,0,0,1,3,5.6A6.6,6.6,0,0,1,50.6,134ZM25.5,226.1a6.6,6.6,0,0,1-5.4,2.8,6.7,6.7,0,0,1-6.7-6.7,6.3,6.3,0,0,1,2-4.7,6.6,6.6,0,0,1,4.7-2,6.7,6.7,0,0,1,6.7,6.7A6.5,6.5,0,0,1,25.5,226.1ZM38.2,327.4a6,6,0,0,1-2.1,1.4,5.8,5.8,0,0,1-2.6.6,6.7,6.7,0,0,1,0-13.4,5.8,5.8,0,0,1,2.6.5,6,6,0,0,1,2.1,1.4,6.6,6.6,0,0,1,0,9.5ZM200.9,49.3a6.5,6.5,0,0,1,6.6,6.7,6.5,6.5,0,0,1-2.9,5.5,6.5,6.5,0,0,1-7.5,0l-1-.8a6.7,6.7,0,0,1,4.8-11.4ZM134.1,294.8l-1.5-.6a19.9,19.9,0,0,1-12.1-18.4V155.3a20.1,20.1,0,0,1,20.1-20.1H261.1a20.7,20.7,0,0,1,9.6,2.4,20.3,20.3,0,0,1,10.5,17.7V275.8a20.1,20.1,0,0,1-20.1,20.1H140.6a19.8,19.8,0,0,1-6-.9Z" fill="#434f58"/><path d="M161.7,271.5H240a16.9,16.9,0,0,0,16.9-16.9V176.4A16.9,16.9,0,0,0,240,159.6H161.7a16.9,16.9,0,0,0-16.9,16.8v78.2A16.9,16.9,0,0,0,161.7,271.5Zm-4.2-95.1a4.3,4.3,0,0,1,1.2-2.9,4.2,4.2,0,0,1,3-1.3h78.4a4.7,4.7,0,0,1,1.7.4l1.2.8h.1l.5.6a3.9,3.9,0,0,1,.7,2.3v78.2a4,4,0,0,1-.7,2.4l-.5.6a4.1,4.1,0,0,1-3,1.2H161.7a4.2,4.2,0,0,1-4.2-4.2Z" fill="#434f58"/></svg>