<svg viewBox="0 0 500 500" xmlns="http://www.w3.org/2000/svg"><path d="m440.64 400.75a12.92 12.92 0 1 1 12.92-12.91 12.89 12.89 0 0 1 -12.92 12.91zm-34-12.91a12.92 12.92 0 1 0 -12.92 12.91 12.92 12.92 0 0 0 12.9-12.91zm74.61-62.23h-192.79a6.89 6.89 0 0 0 -6.75 8.17l.05.24a6.89 6.89 0 0 0 6.77 5.69h192.79a4.67 4.67 0 0 1 4.67 4.67v87a4.67 4.67 0 0 1 -4.67 4.66h-213.93a6.91 6.91 0 0 0 -5.86 3.21l-.09.14a7 7 0 0 0 5.86 10.76h213.93a18.83 18.83 0 0 0 18.77-18.81v-87a18.78 18.78 0 0 0 -18.77-18.73zm-124 62.27a12.92 12.92 0 1 0 -12.92 12.92 12.92 12.92 0 0 0 12.91-12.92zm124-197.71h-387.44a18.83 18.83 0 0 0 -18.81 18.83v7.49a7 7 0 0 0 9.49 6.51l.16-.06a7 7 0 0 0 4.49-6.52v-7.42a4.67 4.67 0 0 1 4.67-4.67h387.51a4.67 4.67 0 0 1 4.68 4.67v86.9a4.67 4.67 0 0 1 -4.67 4.67h-199.59a7 7 0 0 0 -6.55 9.36l.05.14a7 7 0 0 0 6.55 4.6h199.44a18.83 18.83 0 0 0 18.77-18.77v-86.9a18.79 18.79 0 0 0 -18.77-18.83zm-124 62.28a12.92 12.92 0 1 0 -12.92 12.92 12.93 12.93 0 0 0 12.91-12.92zm96.32 0a12.92 12.92 0 1 0 -12.92 12.92 12.92 12.92 0 0 0 12.91-12.97zm-46.94 0a12.92 12.92 0 1 0 -12.92 12.92 12.92 12.92 0 0 0 12.91-12.97zm-304.49-68.61a6.22 6.22 0 0 0 6.18-6.86c-.09-.86-.16-1.73-.21-2.59a62.36 62.36 0 0 1 50-64.58 6.23 6.23 0 0 0 5-5.3 41.37 41.37 0 0 1 40.89-35.88 41 41 0 0 1 16.33 3.37 6.22 6.22 0 0 0 7.94-2.69 105.4 105.4 0 0 1 92.2-54.42c57.53 0 104.76 46.79 105.28 104.32a6.18 6.18 0 0 0 4.76 6 54.36 54.36 0 0 1 42.34 52.53v.67a5.41 5.41 0 0 0 5.41 5.44h1.6a5.39 5.39 0 0 0 5.42-5.34v-.06a67.12 67.12 0 0 0 -47.24-64.08 117.73 117.73 0 0 0 -218-55.7 53.74 53.74 0 0 0 -68.63 39.91 74.83 74.83 0 0 0 -55.7 76.72c.06 1 .14 2 .24 3a6.21 6.21 0 0 0 6.19 5.54zm278.73-107.2a6.21 6.21 0 0 0 4.79-10.18 84.35 84.35 0 0 0 -65.19-30.84 6.22 6.22 0 1 0 0 12.43 72 72 0 0 1 55.6 26.33 6.21 6.21 0 0 0 4.8 2.26zm-191 410.12a137.58 137.58 0 0 0 73-73 136.45 136.45 0 0 0 0-106.36 137 137 0 0 0 -29.41-43.48 140.17 140.17 0 0 0 -43.63-29.25 133 133 0 0 0 -53.18-10.79 132.76 132.76 0 0 0 -53.18 10.8 136.39 136.39 0 0 0 -72.73 72.72 136.45 136.45 0 0 0 0 106.36 140.33 140.33 0 0 0 29.26 43.6 136.91 136.91 0 0 0 43.48 29.4 132.92 132.92 0 0 0 53.18 10.79 133 133 0 0 0 53.22-10.79zm-3.76-243.21a130.49 130.49 0 0 1 40.51 27.21 127.16 127.16 0 0 1 27.38 40.36 127 127 0 0 1 0 98.88 128.65 128.65 0 0 1 -67.88 67.87 123 123 0 0 1 -49.42 10 123.11 123.11 0 0 1 -49.43-10 128.74 128.74 0 0 1 -67.88-67.87 127 127 0 0 1 0-98.85 127.35 127.35 0 0 1 27.38-40.36 130.45 130.45 0 0 1 40.5-27.21 123.28 123.28 0 0 1 49.43-10 123.2 123.2 0 0 1 49.42 9.97zm-47.22 128.25 36.6 98.54a112.77 112.77 0 0 1 -55.49 5.66 133.39 133.39 0 0 1 -16.11-3.44zm-82.58-75.38q-9.39.3-16.9 0a116.25 116.25 0 0 1 41.14-38q25.45-14.25 56.15-14.24a114 114 0 0 1 43 8.13 117.11 117.11 0 0 1 35.82 22.52 20.55 20.55 0 0 0 -10.33 1.41q-5 2-9.07 9.23a18.67 18.67 0 0 0 -1.87 11.73 49.39 49.39 0 0 0 3.75 12.8 88.41 88.41 0 0 0 6.41 12.05q3.6 5.63 5.48 9.38 4.38 7.2 5.16 17.67a59.09 59.09 0 0 1 -2.66 21.74q-1.26 5-3.76 13.14-2.19 7.2-5.47 18.46t-8.29 28.15l-42.22-125.42c2.09-.21 4.17-.36 6.26-.47a50 50 0 0 0 6.57-.78q5-.62 4.38-5a5 5 0 0 0 -1.88-3.13 5.34 5.34 0 0 0 -3.44-1.25q-18.47.93-25.34 1.87t-19.24 0l-12.35-.93-4.38-.63a3.43 3.43 0 0 0 -3.44.63 4.9 4.9 0 0 0 -1.88 3.12 3.45 3.45 0 0 0 .63 3.45 4.93 4.93 0 0 0 3.12 1.87c.21 0 1.41.16 3.6.47s5.27.68 9.23 1.1l18.45 49.42-25.65 75.7-42.54-125.44c2.3-.21 4.49-.36 6.57-.47a49.62 49.62 0 0 0 6.57-.78q5-.62 4.38-5a4.92 4.92 0 0 0 -1.88-3.13 5.34 5.34 0 0 0 -3.39-1.25 200.69 200.69 0 0 1 -20.69 1.88zm-26.31 17.51 56 151.4a109.47 109.47 0 0 1 -26.74-17.67 119.22 119.22 0 0 1 -20.8-24.4 113.55 113.55 0 0 1 -13.46-29.56 117.22 117.22 0 0 1 -4.69-33.16 115.34 115.34 0 0 1 9.69-46.61zm218.81 77.73a118.16 118.16 0 0 1 -11.81 27.85 122.08 122.08 0 0 1 -18.31 23.77 109.75 109.75 0 0 1 -23.77 18.3q1.88-5 5.94-16.89t8.76-25.18q4.69-13.31 8.76-25.5t5.95-17.52q4.38-12.51 9.07-26.27a144.32 144.32 0 0 0 6.57-30.66q.31-3.44.31-6.72a37.4 37.4 0 0 0 -.63-6.73 116.86 116.86 0 0 1 9.23 85.55z" fill="#434f58"/></svg>