<svg viewBox="0 0 500 500" xmlns="http://www.w3.org/2000/svg"><g fill="#0073ec"><path d="m492.9 5.5a16.7 16.7 0 0 0 -12.4-5.5h-461a16.7 16.7 0 0 0 -12.4 5.5 19.2 19.2 0 0 0 -5.1 13.2v76.6h496v-76.6a19.2 19.2 0 0 0 -5.1-13.2zm-436.9 61a11.8 11.8 0 1 1 11.8-11.8 11.8 11.8 0 0 1 -11.8 11.8zm42.8-.1a11.7 11.7 0 0 1 0-23.4 11.7 11.7 0 1 1 0 23.4zm42.8 0a11.7 11.7 0 1 1 11.7-11.7 11.7 11.7 0 0 1 -11.7 11.7z" opacity=".95"/><g opacity=".35"><circle cx="98.8" cy="54.7" r="11.7" transform="matrix(.38268343 -.92387953 .92387953 .38268343 10.5 125.1)"/><circle cx="56" cy="54.7" r="11.7"/><circle cx="141.6" cy="54.7" r="11.7"/></g><rect height="150.24" rx="7.4" width="203.3" x="48.7" y="165.7"/><path d="m245.1 345.1h-186.4a6.9 6.9 0 0 0 0 13.8h186.4a6.9 6.9 0 1 0 0-13.8z"/><path d="m448.4 172.7a3.1 3.1 0 0 0 -3-3.1h-52.2a3.1 3.1 0 0 0 -3.1 3.1v11.4h14.1a4 4 0 0 1 3.9 3.9 4 4 0 0 1 -3.9 3.9h-14.1v10.6h5.3a3.7 3.7 0 0 1 3.7 3.7 4 4 0 0 1 -4.1 4h-4.9v10.6h14.3a3.8 3.8 0 0 1 3.7 3.7v.4a3.8 3.8 0 0 1 -3.7 3.7h-14.3v10.6h5.1a3.9 3.9 0 1 1 0 7.7h-5.1v10.6h14.1a4 4 0 0 1 3.9 3.9 3.9 3.9 0 0 1 -3.9 3.9h-14.1v10.6h5.1a3.9 3.9 0 0 1 3.9 3.9 4 4 0 0 1 -3.9 3.9h-5.1v10.5h14.1a4 4 0 0 1 3.9 3.9 3.9 3.9 0 0 1 -3.9 3.9h-14.1v10.6h5.1a3.9 3.9 0 0 1 3.9 3.9 4 4 0 0 1 -3.9 3.9h-5.1v10.5h14.1a4 4 0 0 1 3.9 3.9 3.9 3.9 0 0 1 -3.9 3.9h-14.1v10.6h5.1a3.9 3.9 0 0 1 3.9 3.9 4 4 0 0 1 -3.9 3.9h-5.1v10.5h14.1a4 4 0 0 1 3.9 3.9 3.9 3.9 0 0 1 -3.9 3.9h-14.1v10.6h5.1a3.9 3.9 0 0 1 3.9 3.9 4 4 0 0 1 -3.9 3.9h-5.1v10.5h14.1a4 4 0 0 1 3.9 3.9 3.9 3.9 0 0 1 -3.9 3.9h-14.1v10.6h5.1a3.9 3.9 0 0 1 3.9 3.9 4 4 0 0 1 -3.9 3.9h-5.1v10.6h14.1a3.9 3.9 0 0 1 3.9 3.8 3.9 3.9 0 0 1 -3.9 3.9h-14.1v10.6h5.1a3.9 3.9 0 0 1 3.9 3.9 4 4 0 0 1 -3.9 3.9h-5.1v29.7a3.1 3.1 0 0 0 3.1 3.1h52.2a3.1 3.1 0 0 0 3-3.1zm-44.2 312.8h-14.1v-7.7h14.1a4 4 0 0 1 3.9 3.8 3.9 3.9 0 0 1 -3.9 3.9z" opacity=".95"/><path d="m299.4 216.7 18.2-31.4h18.1l18.1 31.4z" opacity=".35"/><path d="m353.8 216.7v233.8h-54.3v-233.8zm-18.1-31.4-9-15.7-9.1 15.7z" opacity=".95"/><g opacity=".35"><path d="m299.5 450.5h18.1v18.11h-18.1z"/><path d="m317.6 450.5h36.2v18.11h-36.2z"/></g><path d="m299.5 472.8v-4.2h18.1v4.2a27 27 0 0 0 18.1 25.6 25.1 25.1 0 0 1 -9 1.6 27.4 27.4 0 0 1 -19.3-8 26.9 26.9 0 0 1 -7.9-19.2z" opacity=".95"/><path d="m317.6 472.8v-4.2h36.3v4.2a27 27 0 0 1 -18.1 25.6 27 27 0 0 1 -18.1-25.6z" opacity=".95"/><path d="m2 95.3v309.6a19.2 19.2 0 0 0 5.1 13.2 16.7 16.7 0 0 0 12.4 5.5h280v-206.9h-.1l18.2-31.4 9.1-15.7 9 15.7 18.1 31.4v206.9h126.7a16.7 16.7 0 0 0 12.4-5.5 19.2 19.2 0 0 0 5.1-13.2v-309.6zm243.1 263.6h-186.4a6.9 6.9 0 0 1 0-13.8h186.4a6.9 6.9 0 1 1 0 13.8zm6.9-50.4a7.4 7.4 0 0 1 -7.4 7.4h-188.5a7.4 7.4 0 0 1 -7.4-7.4v-135.4a7.4 7.4 0 0 1 7.4-7.4h188.5a7.4 7.4 0 0 1 7.4 7.4z" opacity=".35"/></g></svg>