<svg viewBox="0 0 500 500" xmlns="http://www.w3.org/2000/svg"><g fill="#434f58"><path d="m288.54 54.25a8 8 0 0 0 0 16 92.32 92.32 0 0 1 71.33 33.75 8 8 0 1 0 12.3-10.16 108.23 108.23 0 0 0 -83.63-39.59z"/><path d="m481 183.57a86.56 86.56 0 0 0 -41.61-28.29 151.05 151.05 0 0 0 -279.65-71.47 69 69 0 0 0 -88.05 51.19 96 96 0 0 0 -71.52 98.47c3 50.81 45.86 90.12 96.76 90.12h108.79l-5.61.08 213.8-.08a86.08 86.08 0 0 0 67.09-140zm-68.17 124.06-212.38.08 5.27-.08h-108.72c-42.55 0-78.49-32.85-80.88-75.34a80 80 0 0 1 64.1-82.85 8 8 0 0 0 6.36-6.79 53 53 0 0 1 73.5-41.72 8 8 0 0 0 10.19-3.44 135.22 135.22 0 0 1 118.3-69.83c73.81 0 134.4 60 135.07 133.84a8 8 0 0 0 6.18 7.7 69.76 69.76 0 0 1 54.18 67.39c.53 39.07-32.1 71.04-71.17 71.04z"/><path d="m276.71 435.35v-92a7.85 7.85 0 0 0 -15.7 0v92a27.06 27.06 0 0 0 7.22 52.95h.63a27.05 27.05 0 0 0 7.85-52.95zm-7.77 37.26h-.32a11.34 11.34 0 0 1 .24-22.68h.32a10.93 10.93 0 0 1 7.92 3.49 11.32 11.32 0 0 1 -8.16 19.19z"/><path d="m226.29 335.55a7.86 7.86 0 0 0 -7.85 7.84v44a13.71 13.71 0 0 1 -13.71 13.71h-23.15a27.11 27.11 0 1 0 0 15.7h23.15a29.45 29.45 0 0 0 29.41-29.41v-44a7.81 7.81 0 0 0 -7.85-7.84zm-70.63 84.82a11.42 11.42 0 1 1 11.42-11.37 11.42 11.42 0 0 1 -11.42 11.37z"/><path d="m382.06 381.92a27.12 27.12 0 0 0 -25.92 19.26h-23.14a13.71 13.71 0 0 1 -13.71-13.71v-44a7.85 7.85 0 0 0 -15.7 0v44a29.45 29.45 0 0 0 29.41 29.41h23.15a27.1 27.1 0 1 0 25.92-35zm0 38.53a11.42 11.42 0 1 1 11.41-11.45 11.38 11.38 0 0 1 -11.41 11.45z"/></g></svg>