<svg viewBox="0 0 500 500" xmlns="http://www.w3.org/2000/svg"><path d="m175.96 54.1h275.23v44.66h-275.23z" fill="none"/><path d="m226 201.21a91.27 91.27 0 0 0 -19.63-28.94 93.49 93.49 0 0 0 -29.06-19.52 91.1 91.1 0 0 0 -70.9 0 93.49 93.49 0 0 0 -29.06 19.52 91.47 91.47 0 0 0 -19.64 28.94 91.13 91.13 0 0 0 0 70.91 92.28 92.28 0 0 0 48.7 48.69 91.1 91.1 0 0 0 70.9 0 92.22 92.22 0 0 0 48.69-48.69 91.13 91.13 0 0 0 0-70.91zm-139.68 98a85.79 85.79 0 0 1 -14.92-17.5 81.59 81.59 0 0 1 -9.65-21.21 84 84 0 0 1 -3.36-23.78 82.81 82.81 0 0 1 6.95-33.44l40.17 108.61a78.44 78.44 0 0 1 -19.23-12.73zm55.54 21.2a81.56 81.56 0 0 1 -12-.89 95.76 95.76 0 0 1 -11.6-2.52l25.13-72.25 26.25 70.68a81.44 81.44 0 0 1 -27.82 4.93zm11.4-123.41c1.5-.15 3-.26 4.49-.34a35.41 35.41 0 0 0 4.71-.56c2.4-.3 3.44-1.49 3.14-3.59a3.54 3.54 0 0 0 -1.34-2.24 3.86 3.86 0 0 0 -2.47-.9q-13.24.68-18.18 1.35a69.28 69.28 0 0 1 -13.8 0l-8.81-.72-3.14-.45a2.47 2.47 0 0 0 -2.47.45 3.45 3.45 0 0 0 -1.34 2.24 2.49 2.49 0 0 0 .44 2.47 3.54 3.54 0 0 0 2.25 1.34c.15 0 1 .12 2.58.34s3.78.49 6.62.79l13.24 35.45-18.4 54.3-30.57-89.93c1.65-.15 3.22-.26 4.71-.34a35.41 35.41 0 0 0 4.71-.56c2.4-.3 3.44-1.49 3.15-3.59a3.56 3.56 0 0 0 -1.35-2.24 3.86 3.86 0 0 0 -2.47-.9 142.44 142.44 0 0 1 -14.81 1.35q-6.74.22-12.12 0a83.32 83.32 0 0 1 29.51-27.26 84.55 84.55 0 0 1 71.13-4.46 83.79 83.79 0 0 1 25.69 16.16 14.67 14.67 0 0 0 -7.4 1q-3.59 1.45-6.51 6.61a13.44 13.44 0 0 0 -1.34 8.42 35.21 35.21 0 0 0 2.69 9.2 63.3 63.3 0 0 0 4.6 8.64 77.12 77.12 0 0 1 3.93 6.73 28.24 28.24 0 0 1 3.7 12.68 42.29 42.29 0 0 1 -1.91 15.59q-.9 3.6-2.69 9.43-1.58 5.16-3.93 13.24t-5.95 20.19zm69 62a84.57 84.57 0 0 1 -8.52 20 88.21 88.21 0 0 1 -13.13 17 78.86 78.86 0 0 1 -17.06 13.13q1.35-3.6 4.27-12.12t6.28-18.01q3.38-9.54 6.29-18.29t4.26-12.57q3.14-9 6.51-18.85a103.92 103.92 0 0 0 4.71-22c.15-1.64.22-3.25.22-4.82a27 27 0 0 0 -.45-4.83 83.8 83.8 0 0 1 6.62 61.36z" fill="none"/><path d="m161.23 54.1h-146.38v44.67h146.38zm-114.11 30.06a7.9 7.9 0 0 1 -7.85-7.85 7.74 7.74 0 0 1 7.85-7.85 7.85 7.85 0 0 1 0 15.7zm40.61 0a7.85 7.85 0 1 1 7.86-7.85 7.9 7.9 0 0 1 -7.86 7.85zm40.74 0a7.9 7.9 0 0 1 -7.85-7.85 7.76 7.76 0 0 1 7.85-7.85 7.85 7.85 0 1 1 0 15.7z" fill="none"/><g fill="#434f58"><path d="m87.73 68.46a7.85 7.85 0 1 0 7.86 7.85 7.91 7.91 0 0 0 -7.86-7.85z"/><path d="m128.47 68.46a7.76 7.76 0 0 0 -7.85 7.85 7.86 7.86 0 1 0 7.85-7.85z"/><path d="m47.12 68.46a7.74 7.74 0 0 0 -7.85 7.85 7.85 7.85 0 1 0 7.85-7.85z"/><path d="m6.63 351.66a7.48 7.48 0 0 0 8.22-7.48v-230.57h436.46v76.39a7.56 7.56 0 0 0 7.36 7.48 7.39 7.39 0 0 0 7.73-7.36l-.12-143.49a7.43 7.43 0 0 0 -7.48-7.49h-451.32a7.36 7.36 0 0 0 -7.48 7.48v297.31a7.7 7.7 0 0 0 6.63 7.73zm169.37-297.56h275.19v44.67h-275.19zm-161.11 0h146.34v44.67h-146.38z"/><path d="m233.26 354.61h-180.26a6.63 6.63 0 1 0 0 13.25h180.26a6.63 6.63 0 1 0 0-13.25z"/><path d="m233.26 394.85h-180.26a6.63 6.63 0 1 0 0 13.26h180.26a6.63 6.63 0 0 0 0-13.26z"/><path d="m345.52 357.31a7.12 7.12 0 0 0 7.16 7.17h77.38a7.13 7.13 0 0 0 7.17-7.17v-37.37a7.13 7.13 0 0 0 -7.17-7.17h-77.38a7.07 7.07 0 0 0 -7.16 7.17z"/><path d="m399.58 294.09a6.28 6.28 0 0 0 6.26-6.26v-39.19a6.27 6.27 0 0 0 -6.26-6.26h-47.89a6.14 6.14 0 0 0 -6.17 6.26v39.19a6.28 6.28 0 0 0 6.26 6.26z"/><path d="m492.92 246.37a7.08 7.08 0 0 0 7.08-7.07v-5.9a26.33 26.33 0 0 0 -26.31-26.31h-140.33a26.33 26.33 0 0 0 -26.3 26.31v140.06a26.33 26.33 0 0 0 26.3 26.31h140.33a26.31 26.31 0 0 0 26.31-26.22v-68a26.32 26.32 0 0 0 -26.31-26.31h-28.93a7.08 7.08 0 1 0 0 14.15h28.93a12.15 12.15 0 0 1 12.16 12.16v68a12.16 12.16 0 0 1 -12.16 12.16h-140.33a12.16 12.16 0 0 1 -12.15-12.16v-140.15a12.16 12.16 0 0 1 12.15-12.16h140.33a12.16 12.16 0 0 1 12.16 12.16v5.9a7.08 7.08 0 0 0 7.07 7.07z"/><path d="m458.18 419.12a7.7 7.7 0 0 0 -6.62 7.73v19.15h-436.56v-71.64a7.71 7.71 0 0 0 -6.63-7.73 7.48 7.48 0 0 0 -8.22 7.49v79.26a7.49 7.49 0 0 0 7.49 7.49h451.28a7.48 7.48 0 0 0 7.48-7.49v-26.78a7.47 7.47 0 0 0 -8.22-7.48z"/><path d="m189.5 266.74q2.35-8.08 3.93-13.24 1.8-5.83 2.69-9.43a42.29 42.29 0 0 0 1.88-15.59 28.24 28.24 0 0 0 -3.7-12.68 77.12 77.12 0 0 0 -3.93-6.73 63.3 63.3 0 0 1 -4.6-8.64 35.21 35.21 0 0 1 -2.69-9.2 13.44 13.44 0 0 1 1.34-8.42q2.93-5.16 6.51-6.61a14.67 14.67 0 0 1 7.4-1 83.79 83.79 0 0 0 -25.66-16.2 84.55 84.55 0 0 0 -71.13 4.38 83.32 83.32 0 0 0 -29.54 27.29q5.39.22 12.12 0a142.44 142.44 0 0 0 14.88-1.35 3.86 3.86 0 0 1 2.47.9 3.56 3.56 0 0 1 1.35 2.24c.29 2.1-.75 3.29-3.15 3.59a35.41 35.41 0 0 1 -4.71.56c-1.49.08-3.06.19-4.71.34l30.52 90 18.4-54.3-13.24-35.45c-2.84-.3-5-.57-6.62-.79s-2.43-.34-2.58-.34a3.54 3.54 0 0 1 -2.25-1.34 2.49 2.49 0 0 1 -.44-2.47 3.45 3.45 0 0 1 1.34-2.24 2.47 2.47 0 0 1 2.47-.45l3.15.43 8.86.67a69.28 69.28 0 0 0 13.8 0q4.95-.67 18.18-1.35a3.86 3.86 0 0 1 2.47.9 3.54 3.54 0 0 1 1.34 2.24c.3 2.1-.74 3.29-3.14 3.59a35.41 35.41 0 0 1 -4.71.56c-1.5.08-3 .19-4.49.34l30.29 90q3.55-12.14 5.9-20.21z"/><path d="m118.26 317a95.76 95.76 0 0 0 11.55 2.47 81.11 81.11 0 0 0 39.83-4l-26.25-70.68z"/><path d="m232.36 198.52a98.19 98.19 0 0 0 -21.09-31.19 100.65 100.65 0 0 0 -31.3-21 97.89 97.89 0 0 0 -76.3 0 97.86 97.86 0 0 0 -52.17 52.19 97.86 97.86 0 0 0 0 76.29 100.57 100.57 0 0 0 21 31.31 98.3 98.3 0 0 0 31.19 21.09 97.89 97.89 0 0 0 76.3 0 98.63 98.63 0 0 0 52.39-52.4 97.86 97.86 0 0 0 0-76.29zm-6.4 73.6a92.22 92.22 0 0 1 -48.69 48.69 91.1 91.1 0 0 1 -70.9 0 92.28 92.28 0 0 1 -48.7-48.69 91.13 91.13 0 0 1 0-70.91 91.47 91.47 0 0 1 19.64-28.94 93.49 93.49 0 0 1 29.06-19.52 91.1 91.1 0 0 1 70.9 0 93.49 93.49 0 0 1 29.06 19.52 91.27 91.27 0 0 1 19.67 28.94 91.13 91.13 0 0 1 0 70.91z"/><path d="m216.09 202.45c0 1.57-.07 3.18-.22 4.82a103.92 103.92 0 0 1 -4.71 22q-3.37 9.87-6.51 18.85-1.35 3.81-4.26 12.57t-6.29 18.31q-3.36 9.52-6.28 18.06t-4.27 12.12a78.86 78.86 0 0 0 17.06-13.18 88.21 88.21 0 0 0 13.13-17 84.57 84.57 0 0 0 8.52-20 83.8 83.8 0 0 0 -6.62-61.37 27 27 0 0 1 .45 4.82z"/><path d="m58.35 236.67a84 84 0 0 0 3.36 23.78 81.59 81.59 0 0 0 9.65 21.21 85.79 85.79 0 0 0 14.92 17.5 78.44 78.44 0 0 0 19.19 12.68l-40.17-108.61a82.81 82.81 0 0 0 -6.95 33.44z"/></g></svg>