<?xml version="1.0" encoding="utf-8"?>
<!-- Generator: Adobe Illustrator 21.1.0, SVG Export Plug-In . SVG Version: 6.00 Build 0)  -->
<svg version="1.1" id="Layer_1" xmlns="http://www.w3.org/2000/svg" xmlns:xlink="http://www.w3.org/1999/xlink" x="0px" y="0px"
	 viewBox="0 0 521.8 124.6" style="enable-background:new 0 0 521.8 124.6;" xml:space="preserve">
<style type="text/css">
	.st0{fill:#1462A5;}
	.st1{fill:#81D1F4;}
	.st2{clip-path:url(#SVGID_2_);}
</style>
<title>logo.com.no-verisign</title>
<g id="Layer_2">
	<g id="art">
		<path class="st0" d="M200.3,76.4c-6.3,26.5-29.7,48.2-61.3,48.2c-35.4,0-62.5-27.8-62.5-62.5C76.5,27.8,103.3,0,138.2,0
			c30.9,0,56,20.4,61.9,49h-35.4c-3.7-8-10.7-16.4-25.3-16.4c-7.6-0.5-15.1,2.5-20.2,8.2c-4.8,5.5-7.6,13-7.6,21.5
			c0,17,11.2,29.7,27.8,29.7c14.5,0,21.5-8.4,25.3-15.6H200.3z"/>
		<path class="st0" d="M207.3,62.1c0-28.4,20.4-61.9,62.9-61.9s62.9,33.5,62.9,62.1s-20.4,62.1-62.9,62.1s-62.9-33.5-62.9-62.1V62.1
			z M242.2,62.5c0,16.8,12.8,29.3,28,29.3c15.2,0,28-12.4,28-29.5s-12.8-29.5-28-29.5s-28,12.4-28,29.5L242.2,62.5z"/>
		<path class="st0" d="M342.4,4h32.6v12.4c1.8-3.2,4.2-6,7.1-8.2C387.3,4,395.5,0,407.7,0c8,0,18.1,2.1,26.7,11.2
			c2.8,2.9,5.1,6.1,6.9,9.7c2.3-3.7,5.2-7.1,8.4-10.1C456.8,4.4,466.2,0,478.4,0c8.2,0,21.3,1.9,30.7,11.8
			c10.9,11.6,12.6,19.4,12.6,45.2v63.8h-34.9v-62c0-4.8,0-11.1-2.3-16.4c-2.1-5.5-6.5-9.5-15.6-9.5c-9.7,0-14.5,4.4-16.8,9.7
			c-2.5,5.3-2.5,11.2-2.5,14.5v63.8h-35V57.3c0-3.2,0-9.3-2.1-14.5c-2.3-5.5-6.5-9.9-15.4-9.9c-9.9,0-14.7,4.6-17.3,10.3
			s-2.5,12-2.5,15.6v62.1h-35V4z"/>
		<path class="st1" d="M0,63.1c0,14.8,12,26.8,26.8,26.8s26.8-12,26.8-26.8s-12-26.8-26.8-26.8l0,0C12,36.3,0,48.3,0,63.1"/>
		<g>
			<defs>
				<path id="SVGID_1_" d="M0,63.1c0,14.8,12,26.8,26.8,26.8s26.8-12,26.8-26.8s-12-26.8-26.8-26.8l0,0C12,36.3,0,48.3,0,63.1"/>
			</defs>
			<clipPath id="SVGID_2_">
				<use xlink:href="#SVGID_1_"  style="overflow:visible;"/>
			</clipPath>
			<g class="st2">
				<rect y="36.3" class="st1" width="53.5" height="53.5"/>
			</g>
		</g>
	</g>
</g>
</svg>
