<?xml version="1.0" encoding="utf-8"?>
<!-- Generator: Adobe Illustrator 21.1.0, SVG Export Plug-In . SVG Version: 6.00 Build 0)  -->
<svg version="1.1" id="Layer_1" xmlns="http://www.w3.org/2000/svg" xmlns:xlink="http://www.w3.org/1999/xlink" x="0px" y="0px"
	 viewBox="0 0 188.9 50.6" style="enable-background:new 0 0 188.9 50.6;" xml:space="preserve">
<style type="text/css">
	.st0{fill:#3C3C3C;}
	.st1{fill:#0BA64B;}
</style>
<title>logo.online.simple</title>
<g id="Layer_2">
	<g id="Layer_1-2">
		<path class="st0" d="M51.4,26.5c0-4.3-0.1-7.9-0.3-11h9.3l0.5,4.7h0.2c2.4-3.5,6.4-5.5,10.6-5.5c7,0,12.3,4.6,12.3,14.8v20.4H73.3
			v-19c0-4.4-1.5-7.4-5.4-7.4c-2.5,0-4.7,1.6-5.4,4c-0.3,0.8-0.4,1.7-0.4,2.6v19.8H51.4V26.5z"/>
		<path class="st0" d="M89.1,0h10.7v49.8H89.1V0z"/>
		<path class="st0" d="M115.9,6c0,2.9-2.2,5.3-5.8,5.3c-2.9,0.2-5.4-2-5.5-4.9c0-0.2,0-0.3,0-0.5c-0.1-3.1,2.2-5.4,5.6-5.4
			c2.9-0.2,5.5,2.1,5.7,5C115.9,5.7,115.9,5.9,115.9,6z M104.9,49.9V15.5h10.7v34.3L104.9,49.9z"/>
		<path class="st0" d="M120.6,26.5c0-4.3-0.1-7.9-0.3-11h9.3l0.5,4.7h0.2c2.4-3.5,6.4-5.5,10.6-5.5c7,0,12.3,4.6,12.3,14.8v20.4
			h-10.7v-19c0-4.4-1.5-7.4-5.4-7.4c-2.5,0-4.7,1.6-5.4,4c-0.3,0.9-0.4,1.8-0.4,2.7v19.8h-10.7V26.5z"/>
		<path class="st0" d="M166.4,36.1c0.4,4.4,4.7,6.5,9.7,6.5c3.2,0,6.4-0.4,9.5-1.4l1.4,7.2c-4,1.5-8.2,2.2-12.4,2.1
			c-11.7,0-18.3-6.7-18.3-17.5c0-8.7,5.4-18.3,17.3-18.3c11.1,0,15.3,8.6,15.3,17.1c0,1.4-0.1,2.8-0.4,4.2L166.4,36.1z M179,28.8
			c0-2.6-1.1-7-6-7c-4.5,0-6.3,4.1-6.6,7H179z"/>
		<path class="st0" d="M30.8,14.7c-11,0-18.3,7.1-18.3,18.2c0,0.3,0,0.6,0,0.9c3.3,2,5.3,5.6,5.3,9.5c0,0.9-0.1,1.8-0.3,2.6
			c3.5,3.2,8,4.9,12.7,4.8c9.2,0,18.1-5.8,18.1-18.3C48.3,22,41.3,14.7,30.8,14.7z M30.5,43c-4.6,0-7-4.4-7-10.3
			c0-5,1.9-10.3,7-10.3c4.8,0,6.8,5.2,6.8,10.3C37.3,38.8,34.7,43,30.5,43z"/>
		<circle class="st1" cx="7.4" cy="43" r="7.4"/>
	</g>
</g>
</svg>
