<?xml version="1.0" encoding="utf-8"?>
<!-- Generator: Adobe Illustrator 21.1.0, SVG Export Plug-In . SVG Version: 6.00 Build 0)  -->
<svg version="1.1" id="Layer_1" xmlns="http://www.w3.org/2000/svg" xmlns:xlink="http://www.w3.org/1999/xlink" x="0px" y="0px"
	 viewBox="0 0 284.3 82.1" style="enable-background:new 0 0 284.3 82.1;" xml:space="preserve">
<style type="text/css">
	.st0{fill:#2279C9;}
	.st1{fill:#AE2525;}
</style>
<title>logo.club</title>
<g id="Layer_2">
	<g id="Layer_1-2">
		<path class="st0" d="M82.6,32.5c-2.3-2.3-4.9-4.1-7.8-5.5c-2.6-1.2-5.4-1.8-8.3-1.8c-4.1-0.2-8,1.3-10.9,4.2
			c-2.8,2.8-4.1,6.5-4.1,11.1c0,4.5,1.3,8.1,4,10.8c2.6,2.7,6.2,4,10.6,4c2.8,0,5.6-0.6,8.1-1.7c3.2-1.4,6.2-3.2,9-5.4l-0.9,29
			c-2.9,1.2-6,2.1-9.1,2.8c-3,0.6-6,0.9-9,0.9c-3.7,0-7.3-0.4-10.9-1.3c-3.3-0.8-6.5-2-9.4-3.6c-3.5-2-6.7-4.4-9.6-7.2
			c2.1-9.1-2.4-18.5-10.9-22.6c-0.2-1.9-0.3-3.8-0.3-5.7c0-5.5,1-10.9,3-16c4-9.9,12-17.8,22-21.6C53.4,1,58.9,0,64.5,0
			c6.2,0,12.4,1.3,18.1,3.9V32.5z M87.3,80V2.9H115V55h27v25H87.3z M144.3,44.7V2.9H172V45c0,4.9,0.6,8.2,1.7,10.1s3.1,2.8,6,2.8
			s4.8-1,5.9-2.8s1.8-5.2,1.8-10V2.9h27.7v41.8c0.1,4.5-0.3,9.1-1.1,13.5c-0.6,3.2-1.7,6.2-3.4,8.9c-3.1,4.8-7.5,8.7-12.7,11.1
			c-11.7,5.1-25,5.1-36.6,0c-5.2-2.4-9.6-6.2-12.7-11.1c-1.7-2.7-2.8-5.7-3.4-8.8C144.6,53.9,144.2,49.3,144.3,44.7L144.3,44.7z
			 M244.8,48.6V61h4.7c2.2,0.1,4.5-0.4,6.4-1.6c1.5-1.1,2.3-2.8,2.2-4.6c0.1-1.8-0.7-3.5-2.2-4.6c-1.9-1.2-4.1-1.7-6.4-1.6
			L244.8,48.6z M244.8,21.2V32h3.6c1.8,0.1,3.6-0.4,5.2-1.4c1.2-1,1.8-2.5,1.8-4c0.1-1.5-0.6-3-1.8-4c-1.5-1-3.3-1.5-5.2-1.4
			L244.8,21.2z M218.7,80V2.9h36.9c7.9,0,14,1.9,18.5,5.6s6.6,8.9,6.6,15.5c0.1,3.8-1,7.5-3.1,10.5c-2.2,2.8-5.4,4.8-8.9,5.5
			c5.3,1.1,9.2,3.1,11.7,6.2s3.9,7.1,3.9,12.2c0,7.2-2.4,12.6-7.3,16.3c-4.9,3.7-12,5.5-21.5,5.5H218.7z"/>
		<path class="st1" d="M14.8,49.5c8.2,0,14.8,6.6,14.8,14.8S23,79.1,14.8,79.1S0,72.5,0,64.3c0,0,0,0,0,0C0,56.1,6.6,49.5,14.8,49.5
			z"/>
	</g>
</g>
</svg>
