<?xml version="1.0" encoding="utf-8"?>
<!-- Generator: Adobe Illustrator 21.1.0, SVG Export Plug-In . SVG Version: 6.00 Build 0)  -->
<svg version="1.1" id="Layer_1" xmlns="http://www.w3.org/2000/svg" xmlns:xlink="http://www.w3.org/1999/xlink" x="0px" y="0px"
	 viewBox="0 0 238.4 143.6" style="enable-background:new 0 0 238.4 143.6;" xml:space="preserve">
<style type="text/css">
	.st0{fill:#186A97;}
</style>
<title>logo.us_1</title>
<g id="Layer_2">
	<g id="Layer_1-2">
		<path class="st0" d="M208.5,1.5c15.3,3.2,24.3,13.1,26.2,28.6c0.4,3.4,0.6,6.9,0.8,10.6h-23.6c-0.2-1.8-0.4-3.6-0.5-5.5
			c-0.4-7-3.4-10.9-10.3-11.9c-4.3-0.6-8.6-0.5-12.9,0.3c-4.4,0.6-7.9,4-8.6,8.4c-1,5.6-0.3,11,4.5,14.9c3.2,2.5,6.6,4.8,10.2,6.8
			c8.4,4.8,17.3,8.9,25.4,14.2c19.5,12.8,24.6,40.5,11.4,59c-4.9,6.8-12.1,11.6-20.2,13.5c-10.4,2.8-21.4,2.9-31.8,0.3
			c-14.9-3.7-24.4-14.4-26.5-29.6c-0.5-3.7-0.6-7.4-0.9-11.3H177c0.2,2.2,0.2,4.5,0.6,6.7c1.9,11.3,8.1,15.9,19.9,14.7
			s18.7-10.9,15.9-22.3c-1.1-4.6-4.2-7.9-8-10.2c-7-4.2-14.3-7.9-21.4-11.9c-4.1-2.3-8.4-4.6-12.3-7.3
			c-12.3-8.5-17.6-20.3-16.7-35.1c1.1-18.4,12.5-30.8,30.9-33.4C192.9-0.6,200.5-0.2,208.5,1.5z"/>
		<path class="st0" d="M66.7,87.6c0,4.7,0.6,9.3,1.6,13.9c2.8,12.3,11.3,18.2,23.9,17.2c11.7-0.9,18.2-6.8,20.4-18.8
			c0.9-4.8,1.4-9.6,1.4-14.4c0.1-26.8,0.1-53.5,0.1-80.3c0-1.1,0-2.2,0-3.5h26.3c0,1,0,1.9,0,2.8c0,30.1,0,60.2,0,90.3
			c0.1,7.6-1.3,15.1-4.1,22.2c-5.3,12.8-14.6,21.4-28.1,24.5c-12.3,2.8-25,2.7-37.3-0.3c-5.8-1.4-13.1-4.9-17.5-8.9
			c3.3-17.8,0.9-32.6-13.4-42.4V2.4c0-0.2,0-0.2,0-0.7h26.4L66.7,87.6z"/>
		<path class="st0" d="M39.9,118.8c0.8,9-6.9,19.9-19.9,20c-11,0.5-20.3-8-20.9-18.9S7,99.5,18,99c0.7,0,1.3,0,2,0
			c10.8-0.2,19.7,8.5,19.9,19.3C39.9,118.4,39.9,118.6,39.9,118.8z"/>
	</g>
</g>
</svg>
