<?xml version="1.0" encoding="utf-8"?>
<!-- Generator: Adobe Illustrator 21.1.0, SVG Export Plug-In . SVG Version: 6.00 Build 0)  -->
<svg version="1.1" id="Layer_1" xmlns="http://www.w3.org/2000/svg" xmlns:xlink="http://www.w3.org/1999/xlink" x="0px" y="0px"
	 viewBox="0 0 650.2 378.7" style="enable-background:new 0 0 650.2 378.7;" xml:space="preserve">
<style type="text/css">
	.st0{fill:#491D55;}
</style>
<title>logo.xyz</title>
<path class="st0" d="M648.1,92.7c0-49.6-40.3-92.7-89.9-92.7H161.5c-50.9,0.1-92.1,41.5-92,92.5c0,9.7,1.6,19.2,4.6,28.4
	c-17.5,3.6-33.5,12.1-46.3,24.6C9.9,163.2,0,187.9,0,215.1c0,27.5,10.2,52.4,28.6,70C41,297,62.7,311,96.2,311h63.8
	c16.8,0,33.3-4.6,47.8-13.3c4.9,46.3,44.2,81.4,90.8,81c33.9,0.2,66.7-12.2,92-34.8c13.5-11.9,25.3-26.5,35.5-44.2
	c11.9,5.6,24.9,8.5,38,8.5H561c49.3,0,89.2-40,89.2-89.2L648.1,92.7z M96.2,239.1c-14.7,0-23.1-7.4-23.1-22.8
	c0-15.8,8.4-23.5,23.1-23.5s22.8,7.7,22.8,23.5C119.1,231.7,111,239.1,96.2,239.1z M259,239.1c-5.3,0-11.6-2.5-15.1-7.4
	c-10.9-15.1-34.4-48.4-34.4-48.4s-23.5,33.3-34.4,48.4c-3.5,4.9-9.8,7.4-15.1,7.4c-10.4,0.1-18.9-8.3-19-18.7c0-0.1,0-0.1,0-0.2
	c0-5.3,1.8-8.4,3.9-11.6l42.4-53.3l-41-50.5c-2.6-3.3-3.9-7.4-3.9-11.6c0-10.4,8.4-18.9,18.8-18.9c0.1,0,0.1,0,0.2,0
	c5.9,0,11.5,2.7,15.1,7.4l33,45.2l33-45.2c3.6-4.6,9.2-7.4,15.1-7.4c10.4,0,18.9,8.4,18.9,18.8c0,0.1,0,0.1,0,0.2
	c0.1,4.2-1.3,8.3-3.9,11.6l-41,50.5l42.4,53.3c2.1,3.2,3.9,6.3,3.9,11.6c0,10.4-8.4,18.9-18.8,18.9C259.1,239.1,259,239.1,259,239.1
	L259,239.1z M436.5,100.5l-65.2,147.3c-15.4,34.4-37.5,58.9-72.6,58.9c-10.2,0-18.2-7.4-18.2-17.5s8.1-17.5,18.2-17.5
	c22.5,0,33-17.9,44.5-46.6l-54-124.5c-0.9-2.3-1.4-4.8-1.4-7.4c0-10.4,8.4-18.9,18.8-18.9c0.1,0,0.1,0,0.2,0
	c7.8-0.1,14.8,4.7,17.5,11.9l38.6,97.5l38.6-97.5c2.8-7.3,9.8-12,17.5-11.9c10.4,0,18.9,8.4,18.9,18.8c0,0.1,0,0.1,0,0.2
	C437.9,95.7,437.4,98.2,436.5,100.5z M561,236.3h-96.8c-8.9-0.1-16-7.3-16.1-16.1c0-4.9,1.8-7.7,3.9-10.5l41.8-56l0,0l26.5-35.5
	l7.1-9.6H468c-8.7,0-15.8-7.1-15.8-15.8c0-8.7,7.1-15.8,15.8-15.8h90.1c9.4,0.1,16.9,7.7,16.9,17c0,3.9-1.4,7.7-3.9,10.7l-74,99.3
	H561c8.9,0,16.1,7.2,16.1,16.2C577.1,229,569.9,236.3,561,236.3z"/>
</svg>
