<svg viewBox="0 0 256 36" xmlns="http://www.w3.org/2000/svg"><g fill="#fff"><path d="m46.69 4.77h9.5c9.25 0 17 4 17 14.53 0 9.34-7.59 14.36-16.16 14.36h-10.34zm6.33 23h3.29c5.89 0 10.31-2.24 10.31-8.81 0-5.67-4.51-8.32-9.86-8.32h-3.76z"/><path d="m76.48 13.83h6.09v3.17h.08c1.3-2.41 3-3.67 5.68-3.67a8 8 0 0 1 2 .2v5.59a9.29 9.29 0 0 0 -2.6-.41c-4.63 0-5.2 2.69-5.2 6.65v8.28h-6.05z"/><path d="m111 30.23a10.7 10.7 0 0 1 -8.32 3.92c-6.09 0-11-4.08-11-10.41s4.87-10.41 11-10.41c5.68 0 9.25 4.08 9.25 10.41v1.92h-14.09a4.55 4.55 0 0 0 4.59 3.84 5.19 5.19 0 0 0 4.34-2.41zm-5.16-8.73a3.66 3.66 0 0 0 -3.73-3.75 4.07 4.07 0 0 0 -4.3 3.75z"/><path d="m127.32 31.17h-.08a7.1 7.1 0 0 1 -6.25 3c-3.69 0-7-2.12-7-6.12 0-6.86 8.28-7 13.35-7a3.63 3.63 0 0 0 -3.9-3.55 6.49 6.49 0 0 0 -5 2.37l-3.25-3.35a12.69 12.69 0 0 1 8.69-3.18c7.1 0 9 3.63 9 10.24v10.08h-5.6zm-1.5-6.2c-1.87 0-6 .16-6 2.86 0 1.47 1.54 2.16 2.88 2.16 2.4 0 4.63-1.26 4.63-3.71v-1.28h-1.5z"/><path d="m136.74 13.83h5.85v2.69h.08a6.39 6.39 0 0 1 5.76-3.18c2.76 0 5 1.14 6.09 3.55a6.41 6.41 0 0 1 6.25-3.55c5.36 0 7 3.8 7 8.61v11.71h-6.09v-11.55c0-1.84-.69-3.39-2.68-3.39-2.8 0-3.69 2-3.69 4.45v10.49h-6.11v-10.49c0-1.47.08-4.45-2.72-4.45-3.17 0-3.65 2.49-3.65 5.06v9.88h-6.09z"/><path d="m171.61 4.77h6.33v10.77h12.3v-10.77h6.33v28.89h-6.33v-12.48h-12.3v12.48h-6.33z"/><path d="m210.26 13.34c6.09 0 11 4.08 11 10.41s-4.87 10.41-11 10.41-11-4.08-11-10.41 4.87-10.41 11-10.41m0 15.43c3 0 4.87-2 4.87-5s-1.83-5-4.87-5-4.87 2-4.87 5 1.83 5 4.87 5"/><path d="m235.18 19.67a4.34 4.34 0 0 0 -3.53-1.67c-1 0-2.23.45-2.23 1.63 0 2.94 10.27.45 10.27 8 0 5.06-4.87 6.53-9.09 6.53-2.76 0-5.81-.69-7.75-2.69l3.69-4.12a5.28 5.28 0 0 0 4.3 2.16c1.38 0 2.76-.37 2.76-1.43 0-3.18-10.27-.49-10.27-8 0-4.65 4.14-6.69 8.28-6.69 2.6 0 5.48.65 7.31 2.61z"/><path d="m256 18.73h-5.36v6.61c0 2.12.24 3.67 2.88 3.67a4.36 4.36 0 0 0 2.48-.57v5.1a12.55 12.55 0 0 1 -4.26.61c-4.06 0-7.18-1.67-7.18-6v-9.42h-3.9v-4.9h3.9v-5.83h6.09v5.88h5.35z"/><path d="m35.81 27a19.52 19.52 0 0 1 -10 2.49 19.23 19.23 0 0 1 -19-19.46 18.74 18.74 0 0 1 2.98-9.67 19 19 0 0 0 -9.79 16.18 19.23 19.23 0 0 0 19 19.46 19.41 19.41 0 0 0 16.82-9"/></g><path d="m25.64 27.27h.36a17 17 0 0 0 8-2 16.81 16.81 0 0 0 -14.41-25.27 16.48 16.48 0 0 0 -8 2.07 16.38 16.38 0 0 0 -2.44 8.27 16.74 16.74 0 0 0 16.49 16.93" fill="#0073ec"/></svg>