<svg width="40" height="34" viewBox="0 0 40 34" fill="none" xmlns="http://www.w3.org/2000/svg">
<path d="M38.8798 1.12022V32.6225H1.12022V1.12022H38.8798ZM39.7039 0H0.296059C0.128026 0 0 0.128026 0 0.296059V33.4547C0 33.6147 0.128026 33.7507 0.296059 33.7507H39.7039C39.864 33.7507 40 33.6227 40 33.4547V0.296059C40 0.128026 39.864 0 39.7039 0Z" fill="#434F58"/>
<path d="M6.96042 3.99522H3.07964C2.76758 3.99522 2.51953 3.74717 2.51953 3.43511C2.51953 3.12305 2.76758 2.875 3.07964 2.875H6.96042C7.27248 2.875 7.52053 3.12305 7.52053 3.43511C7.52053 3.74717 7.27248 3.99522 6.96042 3.99522Z" fill="#434F58"/>
<path d="M36.5113 3.99141C36.4713 3.99141 36.4393 3.99141 36.3993 3.98341C36.3673 3.97541 36.3272 3.96741 36.2952 3.95141C36.2632 3.9354 36.2312 3.9194 36.1992 3.9034C36.1672 3.87939 36.1352 3.85539 36.1112 3.83138C36.0072 3.72736 35.9512 3.58333 35.9512 3.4313C35.9512 3.39129 35.9512 3.35929 35.9592 3.31928C35.9672 3.27927 35.9752 3.24726 35.9912 3.21526C36.0072 3.18325 36.0232 3.15124 36.0392 3.11924C36.0632 3.08723 36.0872 3.06323 36.1112 3.03122C36.1352 2.99921 36.1672 2.98321 36.1992 2.95921C36.2312 2.9432 36.2632 2.9192 36.2952 2.9112C36.3272 2.89519 36.3673 2.88719 36.3993 2.87919C36.4713 2.86319 36.5433 2.86319 36.6153 2.87919C36.6553 2.88719 36.6873 2.89519 36.7193 2.9112C36.7513 2.9272 36.7833 2.9432 36.8153 2.95921C36.8473 2.97521 36.8714 2.99921 36.9034 3.03122C36.9274 3.05523 36.9514 3.08723 36.9754 3.11924C36.9914 3.15124 37.0154 3.18325 37.0234 3.21526C37.0394 3.24726 37.0474 3.28727 37.0554 3.31928C37.0634 3.35129 37.0634 3.39129 37.0634 3.4313C37.0634 3.47131 37.0554 3.50332 37.0554 3.54332C37.0474 3.57533 37.0394 3.61534 37.0234 3.64734C37.0074 3.67935 36.9914 3.71136 36.9754 3.74336C36.9594 3.77537 36.9354 3.80738 36.9034 3.83138C36.8794 3.85539 36.8473 3.87939 36.8153 3.9034C36.7833 3.9194 36.7513 3.9434 36.7193 3.95141C36.6873 3.96741 36.6473 3.97541 36.6153 3.98341C36.5913 3.98341 36.5513 3.99141 36.5113 3.99141Z" fill="#434F58"/>
<path d="M12.3224 6.45616H10.482C10.1699 6.45616 9.92188 6.20811 9.92188 5.89605C9.92188 5.58399 10.1699 5.33594 10.482 5.33594H12.3224C12.6344 5.33594 12.8825 5.58399 12.8825 5.89605C12.8825 6.20811 12.6344 6.45616 12.3224 6.45616Z" fill="#434F58"/>
<path d="M16.2599 6.45616H14.4195C14.1074 6.45616 13.8594 6.20811 13.8594 5.89605C13.8594 5.58399 14.1074 5.33594 14.4195 5.33594H16.2599C16.5719 5.33594 16.82 5.58399 16.82 5.89605C16.82 6.20811 16.5639 6.45616 16.2599 6.45616Z" fill="#434F58"/>
<path d="M20.1876 6.45616H18.3472C18.0352 6.45616 17.7871 6.20811 17.7871 5.89605C17.7871 5.58399 18.0352 5.33594 18.3472 5.33594H20.1876C20.4996 5.33594 20.7477 5.58399 20.7477 5.89605C20.7477 6.20811 20.4996 6.45616 20.1876 6.45616Z" fill="#434F58"/>
<path d="M24.1173 6.45616H22.2769C21.9648 6.45616 21.7168 6.20811 21.7168 5.89605C21.7168 5.58399 21.9648 5.33594 22.2769 5.33594H24.1173C24.4293 5.33594 24.6774 5.58399 24.6774 5.89605C24.6774 6.20811 24.4293 6.45616 24.1173 6.45616Z" fill="#434F58"/>
<path d="M29.5578 3.99522H10.482C10.1699 3.99522 9.92188 3.74717 9.92188 3.43511C9.92188 3.12305 10.1699 2.875 10.482 2.875H29.5578C29.8699 2.875 30.1179 3.12305 30.1179 3.43511C30.1179 3.74717 29.8699 3.99522 29.5578 3.99522Z" fill="#434F58"/>
<path d="M15.2109 12.3976H10.4019C10.0898 12.3976 9.8418 12.1495 9.8418 11.8375C9.8418 11.5254 10.0898 11.2773 10.4019 11.2773H15.2109C15.5229 11.2773 15.771 11.5254 15.771 11.8375C15.771 12.1495 15.5149 12.3976 15.2109 12.3976Z" fill="#434F58"/>
<path d="M13.2345 14.3429H10.482C10.1699 14.3429 9.92188 14.0948 9.92188 13.7828C9.92188 13.4707 10.1699 13.2227 10.482 13.2227H13.2345C13.5466 13.2227 13.7946 13.4707 13.7946 13.7828C13.7946 14.0948 13.5466 14.3429 13.2345 14.3429Z" fill="#434F58"/>
<path d="M16.156 14.3429H15.4039C15.0918 14.3429 14.8438 14.0948 14.8438 13.7828C14.8438 13.4707 15.0918 13.2227 15.4039 13.2227H16.156C16.4681 13.2227 16.7161 13.4707 16.7161 13.7828C16.7161 14.0948 16.4681 14.3429 16.156 14.3429Z" fill="#434F58"/>
<path d="M29.5575 14.3429H27.6851C27.373 14.3429 27.125 14.0948 27.125 13.7828C27.125 13.4707 27.373 13.2227 27.6851 13.2227H29.5575C29.8695 13.2227 30.1176 13.4707 30.1176 13.7828C30.1176 14.0948 29.8695 14.3429 29.5575 14.3429Z" fill="#434F58"/>
<path d="M19.8761 14.3429H18.3238C18.0117 14.3429 17.7637 14.0948 17.7637 13.7828C17.7637 13.4707 18.0117 13.2227 18.3238 13.2227H19.8761C20.1882 13.2227 20.4362 13.4707 20.4362 13.7828C20.4362 14.0948 20.1882 14.3429 19.8761 14.3429Z" fill="#434F58"/>
<path d="M25.5172 14.3429H22.0445C21.7324 14.3429 21.4844 14.0948 21.4844 13.7828C21.4844 13.4707 21.7324 13.2227 22.0445 13.2227H25.5172C25.8292 13.2227 26.0773 13.4707 26.0773 13.7828C26.0773 14.0948 25.8292 14.3429 25.5172 14.3429Z" fill="#434F58"/>
<path d="M15.2109 17.546H10.4019C10.0898 17.546 9.8418 17.298 9.8418 16.9859C9.8418 16.6738 10.0898 16.4258 10.4019 16.4258H15.2109C15.5229 16.4258 15.771 16.6738 15.771 16.9859C15.771 17.298 15.5149 17.546 15.2109 17.546Z" fill="#434F58"/>
<path d="M25.9078 18.3711H28.6603C28.9724 18.3711 29.2204 18.6191 29.2204 18.9312C29.2204 19.2433 28.9724 19.4913 28.6603 19.4913H25.9078C25.5957 19.4913 25.3477 19.2433 25.3477 18.9312C25.3477 18.6191 25.5957 18.3711 25.9078 18.3711Z" fill="#434F58"/>
<path d="M23.2125 18.3711H23.9646C24.2767 18.3711 24.5247 18.6191 24.5247 18.9312C24.5247 19.2433 24.2767 19.4913 23.9646 19.4913H23.2125C22.9004 19.4913 22.6523 19.2433 22.6523 18.9312C22.6523 18.6191 22.9004 18.3711 23.2125 18.3711Z" fill="#434F58"/>
<path d="M10.482 18.3711H12.3544C12.6664 18.3711 12.9145 18.6191 12.9145 18.9312C12.9145 19.2433 12.6664 19.4913 12.3544 19.4913H10.482C10.1699 19.4913 9.92188 19.2433 9.92188 18.9312C9.92188 18.6191 10.1699 18.3711 10.482 18.3711Z" fill="#434F58"/>
<path d="M19.7164 18.3711H21.2687C21.5807 18.3711 21.8288 18.6191 21.8288 18.9312C21.8288 19.2433 21.5807 19.4913 21.2687 19.4913H19.7164C19.4043 19.4913 19.1562 19.2433 19.1562 18.9312C19.1562 18.6191 19.4043 18.3711 19.7164 18.3711Z" fill="#434F58"/>
<path d="M14.3003 18.3711H17.773C18.0851 18.3711 18.3332 18.6191 18.3332 18.9312C18.3332 19.2433 18.0851 19.4913 17.773 19.4913H14.3003C13.9883 19.4913 13.7402 19.2433 13.7402 18.9312C13.7402 18.6191 13.9883 18.3711 14.3003 18.3711Z" fill="#434F58"/>
<path d="M15.2109 22.6905H10.4019C10.0898 22.6905 9.8418 22.4425 9.8418 22.1304C9.8418 21.8184 10.0898 21.5703 10.4019 21.5703H15.2109C15.5229 21.5703 15.771 21.8184 15.771 22.1304C15.771 22.4425 15.5149 22.6905 15.2109 22.6905Z" fill="#434F58"/>
<path d="M13.2345 24.6358H10.482C10.1699 24.6358 9.92188 24.3878 9.92188 24.0757C9.92188 23.7637 10.1699 23.5156 10.482 23.5156H13.2345C13.5466 23.5156 13.7946 23.7637 13.7946 24.0757C13.7946 24.3878 13.5466 24.6358 13.2345 24.6358Z" fill="#434F58"/>
<path d="M15.7146 24.6358H14.9625C14.6504 24.6358 14.4023 24.3878 14.4023 24.0757C14.4023 23.7637 14.6504 23.5156 14.9625 23.5156H15.7146C16.0267 23.5156 16.2747 23.7637 16.2747 24.0757C16.2747 24.3878 16.0267 24.6358 15.7146 24.6358Z" fill="#434F58"/>
<path d="M29.286 24.6358H27.4136C27.1016 24.6358 26.8535 24.3878 26.8535 24.0757C26.8535 23.7637 27.1016 23.5156 27.4136 23.5156H29.286C29.5981 23.5156 29.8461 23.7637 29.8461 24.0757C29.8461 24.3878 29.5901 24.6358 29.286 24.6358Z" fill="#434F58"/>
<path d="M18.9874 24.6358H17.4351C17.123 24.6358 16.875 24.3878 16.875 24.0757C16.875 23.7637 17.123 23.5156 17.4351 23.5156H18.9874C19.2995 23.5156 19.5475 23.7637 19.5475 24.0757C19.5475 24.3878 19.2995 24.6358 18.9874 24.6358Z" fill="#434F58"/>
<path d="M25.3475 24.6358H20.7066C20.3945 24.6358 20.1465 24.3878 20.1465 24.0757C20.1465 23.7637 20.3945 23.5156 20.7066 23.5156H25.3475C25.6596 23.5156 25.9076 23.7637 25.9076 24.0757C25.9076 24.3878 25.6596 24.6358 25.3475 24.6358Z" fill="#434F58"/>
<path d="M15.2109 27.8468H10.4019C10.0898 27.8468 9.8418 27.5987 9.8418 27.2867C9.8418 26.9746 10.0898 26.7266 10.4019 26.7266H15.2109C15.5229 26.7266 15.771 26.9746 15.771 27.2867C15.771 27.5987 15.5149 27.8468 15.2109 27.8468Z" fill="#434F58"/>
<path d="M26.3082 28.6719H29.0607C29.3728 28.6719 29.6208 28.9199 29.6208 29.232C29.6208 29.5441 29.3728 29.7921 29.0607 29.7921H26.3082C25.9961 29.7921 25.748 29.5441 25.748 29.232C25.748 28.9199 25.9961 28.6719 26.3082 28.6719Z" fill="#434F58"/>
<path d="M22.9566 28.6719H24.1888C24.5009 28.6719 24.749 28.9199 24.749 29.232C24.749 29.5441 24.5009 29.7921 24.1888 29.7921H22.9566C22.6445 29.7921 22.3965 29.5441 22.3965 29.232C22.3965 28.9199 22.6445 28.6719 22.9566 28.6719Z" fill="#434F58"/>
<path d="M10.482 28.6719H12.3544C12.6664 28.6719 12.9145 28.9199 12.9145 29.232C12.9145 29.5441 12.6664 29.7921 12.3544 29.7921H10.482C10.1699 29.7921 9.92188 29.5441 9.92188 29.232C9.92188 28.9199 10.1699 28.6719 10.482 28.6719Z" fill="#434F58"/>
<path d="M19.6753 28.6719H21.2277C21.5397 28.6719 21.7878 28.9199 21.7878 29.232C21.7878 29.5441 21.5397 29.7921 21.2277 29.7921H19.6753C19.3633 29.7921 19.1152 29.5441 19.1152 29.232C19.1152 28.9199 19.3633 28.6719 19.6753 28.6719Z" fill="#434F58"/>
<path d="M14.0835 28.6719H17.9563C18.2684 28.6719 18.5164 28.9199 18.5164 29.232C18.5164 29.5441 18.2684 29.7921 17.9563 29.7921H14.0835C13.7715 29.7921 13.5234 29.5441 13.5234 29.232C13.5234 28.9199 13.7715 28.6719 14.0835 28.6719Z" fill="#434F58"/>
<path d="M39.4154 8.07422H0.599609V9.19444H39.4154V8.07422Z" fill="#434F58"/>
</svg>
