<svg width="40" height="37" viewBox="0 0 40 37" fill="none" xmlns="http://www.w3.org/2000/svg">
<path d="M16.9903 0H2.62136C1.16505 0 0 1.16505 0 2.62136V33.4951C0 34.9515 1.16505 36.1165 2.62136 36.1165H16.9903C18.4466 36.1165 19.6117 34.9515 19.6117 33.4951V2.62136C19.6117 1.16505 18.4466 0 16.9903 0ZM1.16505 2.62136C1.16505 1.84466 1.84466 1.16505 2.62136 1.16505H4.56311C4.66019 2.23301 5.53398 3.20388 6.69903 3.20388H12.9126C14.0777 3.20388 14.9515 2.3301 15.0485 1.16505H16.9903C17.767 1.16505 18.4466 1.84466 18.4466 2.62136V4.85437H1.16505V2.62136ZM11.7476 14.9515C12.0388 14.7573 12.4272 14.6602 12.7184 14.6602H12.8155C13.1068 14.7573 13.301 14.7573 13.5922 14.7573C13.8835 14.7573 14.1748 14.6602 14.3689 14.6602H14.466C15.6311 14.6602 16.5049 15.534 16.5049 16.699C16.5049 17.1845 16.1165 17.5728 15.6311 17.5728H12.4272V17.4757V16.7961C12.4272 16.0194 12.1359 15.4369 11.7476 14.9515ZM11.8447 12.3301C11.8447 11.3592 12.6214 10.5825 13.5922 10.5825C14.5631 10.5825 15.3398 11.3592 15.3398 12.3301C15.3398 13.301 14.5631 14.0777 13.5922 14.0777C12.6214 14.0777 11.8447 13.301 11.8447 12.3301ZM6.50485 15.2427H6.69903C7.08738 15.4369 7.47573 15.534 7.96116 15.534C8.4466 15.534 8.83495 15.4369 9.2233 15.2427H9.41748C10.5825 15.2427 11.5534 16.2136 11.5534 17.3786V17.8641C11.5534 18.3495 11.165 18.7379 10.6796 18.7379H5.33981C4.85437 18.7379 4.46602 18.3495 4.46602 17.8641V17.3786C4.46602 16.1165 5.33981 15.2427 6.50485 15.2427ZM5.92233 12.6214C5.92233 11.4563 6.79612 10.5825 7.96116 10.5825C9.12621 10.5825 10 11.4563 10 12.6214C10 13.7864 9.12621 14.6602 7.96116 14.6602C6.79612 14.6602 5.92233 13.6893 5.92233 12.6214ZM18.3495 33.4951C18.3495 34.2718 17.6699 34.9515 16.8932 34.9515H2.62136C1.84466 34.9515 1.16505 34.2718 1.16505 33.4951V23.4951H18.3495V33.4951Z" fill="#434F58"/>
<path d="M2.81495 26.7979H7.96058C8.25184 26.7979 8.5431 26.5066 8.5431 26.2153C8.5431 25.9241 8.25184 25.6328 7.96058 25.6328H2.81495C2.52368 25.6328 2.23242 25.9241 2.23242 26.2153C2.23242 26.5066 2.4266 26.7979 2.81495 26.7979Z" fill="#434F58"/>
<path d="M15.6319 29.6104H16.5057C16.797 29.6104 17.0882 29.3191 17.0882 29.0278C17.0882 28.7366 16.797 28.4453 16.5057 28.4453H15.729C15.4377 28.4453 15.1465 28.7366 15.1465 29.0278C15.1465 29.3191 15.3407 29.6104 15.6319 29.6104Z" fill="#434F58"/>
<path d="M2.81495 29.6104H4.85378C5.14504 29.6104 5.43631 29.3191 5.43631 29.0278C5.43631 28.7366 5.24213 28.4453 4.85378 28.4453H2.81495C2.52368 28.4453 2.23242 28.7366 2.23242 29.0278C2.23242 29.3191 2.52368 29.6104 2.81495 29.6104Z" fill="#434F58"/>
<path d="M12.2329 29.6104H13.8834C14.1747 29.6104 14.4659 29.3191 14.4659 29.0278C14.4659 28.7366 14.1747 28.4453 13.8834 28.4453H12.2329C11.9417 28.4453 11.6504 28.7366 11.6504 29.0278C11.6504 29.3191 11.8446 29.6104 12.2329 29.6104Z" fill="#434F58"/>
<path d="M6.01953 29.0278C6.01953 29.3191 6.31079 29.6104 6.60206 29.6104H10.2914C10.5826 29.6104 10.8739 29.3191 10.8739 29.0278C10.8739 28.7366 10.5826 28.4453 10.2914 28.4453H6.69914C6.31079 28.4453 6.01953 28.7366 6.01953 29.0278Z" fill="#434F58"/>
<path d="M3.68873 30.3867H2.81495C2.52368 30.3867 2.23242 30.678 2.23242 30.9692C2.23242 31.2605 2.52368 31.5518 2.81495 31.5518H3.59165C3.88291 31.5518 4.17417 31.2605 4.17417 30.9692C4.27126 30.678 3.97999 30.3867 3.68873 30.3867Z" fill="#434F58"/>
<path d="M16.5042 30.3867H14.4653C14.1741 30.3867 13.8828 30.678 13.8828 30.9692C13.8828 31.2605 14.1741 31.5518 14.4653 31.5518H16.5042C16.7954 31.5518 17.0867 31.2605 17.0867 30.9692C17.0867 30.678 16.7954 30.3867 16.5042 30.3867Z" fill="#434F58"/>
<path d="M7.08653 30.3867H5.43604C5.14478 30.3867 4.85352 30.678 4.85352 30.9692C4.85352 31.2605 5.14478 31.5518 5.43604 31.5518H7.08653C7.37779 31.5518 7.66905 31.2605 7.66905 30.9692C7.76614 30.678 7.47488 30.3867 7.08653 30.3867Z" fill="#434F58"/>
<path d="M12.6215 30.3867H8.93213C8.64087 30.3867 8.34961 30.678 8.34961 30.9692C8.34961 31.2605 8.64087 31.5518 8.93213 31.5518H12.6215C12.9127 31.5518 13.204 31.2605 13.204 30.9692C13.3011 30.678 13.0098 30.3867 12.6215 30.3867Z" fill="#434F58"/>
<path d="M16.2136 27.1859C16.3107 27.283 16.4078 27.283 16.4078 27.1859L17.3787 26.215C17.6699 25.9237 17.6699 25.4383 17.3787 25.147C17.0874 24.9529 16.6991 24.9529 16.5049 25.2441L16.4078 25.3412L16.2136 25.2441C15.9224 24.9529 15.534 24.9529 15.3398 25.147C15.0486 25.4383 15.0486 25.9237 15.2427 26.215L16.2136 27.1859Z" fill="#434F58"/>
<path d="M38.2526 0.195312H23.1069C22.1361 0.195312 21.3594 0.972012 21.3594 1.94289V10.4866C21.3594 11.4574 22.1361 12.2341 23.1069 12.2341H31.5535L36.6021 16.9914C36.6992 17.0885 36.8934 17.1856 36.9904 17.1856C37.0875 17.1856 37.1846 17.1856 37.2817 17.0885C37.4759 16.9914 37.6701 16.7002 37.573 16.506L36.9904 12.2341H38.3497C39.3205 12.2341 40.0972 11.4574 40.0972 10.4866V1.94289C40.0001 0.972012 39.2234 0.195312 38.2526 0.195312ZM38.8351 10.4866C38.8351 10.7778 38.5438 11.0691 38.2526 11.0691H36.2137C36.0196 11.0691 35.8254 11.1662 35.7283 11.2633C35.6312 11.3604 35.5341 11.5545 35.6312 11.7487L36.1167 14.9526L32.2332 11.2633C32.1361 11.1662 31.9419 11.0691 31.8448 11.0691H23.204C22.9128 11.0691 22.6215 10.7778 22.6215 10.4866V1.94289C22.6215 1.65162 22.9128 1.36036 23.204 1.36036H38.3497C38.5438 1.36036 38.8351 1.65162 38.8351 1.94289V10.4866Z" fill="#434F58"/>
<path d="M38.2526 18.2539H23.1069C22.1361 18.2539 21.3594 19.0306 21.3594 20.0015V28.5452C21.3594 29.516 22.1361 30.2927 23.1069 30.2927H24.4662L23.8836 34.5646C23.8836 34.8558 23.9807 35.05 24.1749 35.1471C24.272 35.1471 24.3691 35.2442 24.4662 35.2442C24.6603 35.2442 24.7574 35.1471 24.8545 35.05L29.9031 30.2927H38.3497C39.3205 30.2927 40.0972 29.516 40.0972 28.5452V20.0015C40.0001 19.0306 39.2234 18.2539 38.2526 18.2539ZM38.8351 28.5452C38.8351 28.8364 38.5438 29.1277 38.2526 29.1277H29.6118C29.4176 29.1277 29.3205 29.2248 29.2235 29.3219L25.34 33.0112L25.8254 29.8073C25.8254 29.6131 25.8254 29.419 25.7283 29.3219C25.6312 29.2248 25.437 29.1277 25.2429 29.1277H23.204C22.9128 29.1277 22.6215 28.8364 22.6215 28.5452V20.0015C22.6215 19.7102 22.9128 19.419 23.204 19.419H38.3497C38.6409 19.419 38.9322 19.7102 38.9322 20.0015V28.5452H38.8351Z" fill="#434F58"/>
<path d="M25.3403 4.46583H27.3792C27.6704 4.46583 27.9617 4.17457 27.9617 3.88331C27.9617 3.59204 27.6704 3.30078 27.3792 3.30078H25.3403C25.0491 3.30078 24.7578 3.59204 24.7578 3.88331C24.7578 4.17457 25.0491 4.46583 25.3403 4.46583Z" fill="#434F58"/>
<path d="M36.4068 3.30078H34.7564C34.4651 3.30078 34.1738 3.59204 34.1738 3.88331C34.1738 4.17457 34.4651 4.46583 34.7564 4.46583H36.4068C36.6981 4.46583 36.9894 4.17457 36.9894 3.88331C36.9894 3.59204 36.6981 3.30078 36.4068 3.30078Z" fill="#434F58"/>
<path d="M29.2231 4.46583H32.9125C33.2037 4.46583 33.495 4.17457 33.495 3.88331C33.495 3.59204 33.2037 3.30078 32.9125 3.30078H29.2231C28.9319 3.30078 28.6406 3.59204 28.6406 3.88331C28.6406 4.17457 28.8348 4.46583 29.2231 4.46583Z" fill="#434F58"/>
<path d="M26.2127 5.24219H25.436C25.1448 5.24219 24.8535 5.53345 24.8535 5.82471C24.8535 6.11597 25.1448 6.40724 25.436 6.40724H26.2127C26.504 6.40724 26.7953 6.11597 26.7953 5.82471C26.7953 5.53345 26.504 5.24219 26.2127 5.24219Z" fill="#434F58"/>
<path d="M29.6119 5.24219H27.9614C27.6702 5.24219 27.3789 5.53345 27.3789 5.82471C27.3789 6.11597 27.6702 6.40724 27.9614 6.40724H29.6119C29.9032 6.40724 30.1944 6.11597 30.1944 5.82471C30.1944 5.53345 30.0003 5.24219 29.6119 5.24219Z" fill="#434F58"/>
<path d="M35.1449 5.24219H31.4556C31.1643 5.24219 30.873 5.53345 30.873 5.82471C30.873 6.11597 31.1643 6.40724 31.4556 6.40724H35.1449C35.4362 6.40724 35.7274 6.11597 35.7274 5.82471C35.7274 5.53345 35.5332 5.24219 35.1449 5.24219Z" fill="#434F58"/>
<path d="M27.3792 23.8828H25.3403C25.0491 23.8828 24.7578 24.1741 24.7578 24.4653C24.7578 24.7566 25.0491 25.0479 25.3403 25.0479H27.3792C27.6704 25.0479 27.9617 24.7566 27.9617 24.4653C27.9617 24.1741 27.6704 23.8828 27.3792 23.8828Z" fill="#434F58"/>
<path d="M36.4068 23.8828H34.7564C34.4651 23.8828 34.1738 24.1741 34.1738 24.4653C34.1738 24.7566 34.4651 25.0479 34.7564 25.0479H36.4068C36.6981 25.0479 36.9894 24.7566 36.9894 24.4653C36.9894 24.1741 36.6981 23.8828 36.4068 23.8828Z" fill="#434F58"/>
<path d="M32.9125 23.8828H29.2231C28.9319 23.8828 28.6406 24.1741 28.6406 24.4653C28.6406 24.7566 28.9319 25.0479 29.2231 25.0479H32.9125C33.2037 25.0479 33.495 24.7566 33.495 24.4653C33.495 24.1741 33.2037 23.8828 32.9125 23.8828Z" fill="#434F58"/>
<path d="M25.339 23.1065H26.2127C26.504 23.1065 26.7953 22.8152 26.7953 22.5239C26.7953 22.2327 26.504 21.9414 26.2127 21.9414H25.436C25.1448 21.9414 24.8535 22.2327 24.8535 22.5239C24.8535 22.8152 25.0477 23.1065 25.339 23.1065Z" fill="#434F58"/>
<path d="M27.9614 23.1065H29.6119C29.9032 23.1065 30.1944 22.8152 30.1944 22.5239C30.1944 22.2327 29.9032 21.9414 29.6119 21.9414H27.9614C27.6702 21.9414 27.3789 22.2327 27.3789 22.5239C27.3789 22.8152 27.6702 23.1065 27.9614 23.1065Z" fill="#434F58"/>
<path d="M31.4556 23.1065H35.1449C35.4362 23.1065 35.7274 22.8152 35.7274 22.5239C35.7274 22.2327 35.4362 21.9414 35.1449 21.9414H31.4556C31.1643 21.9414 30.873 22.2327 30.873 22.5239C30.873 22.8152 31.0672 23.1065 31.4556 23.1065Z" fill="#434F58"/>
</svg>
