<svg width="40" height="34" viewBox="0 0 40 34" fill="none" xmlns="http://www.w3.org/2000/svg">
<path d="M40 4.73714V0.288247C40 0.128215 39.872 -0.0078125 39.7039 -0.0078125H0.296059C0.136027 -0.0078125 0 0.120213 0 0.288247V4.73714V5.85736H0.0080016V33.4469C0.0080016 33.6069 0.136027 33.7429 0.304061 33.7429H39.7119C39.872 33.7429 40.008 33.6149 40.008 33.4469V5.85736V4.73714H40ZM1.12823 1.12041H38.8878V4.73714H1.12823V1.12041ZM1.12823 5.85736H12.8826V32.6227H1.12823V5.85736ZM38.8798 32.6227H14.0028V5.85736H38.8878V32.6227H38.8798Z" fill="#434F58"/>
<path d="M2.92925 8.92101H10.6988C11.0109 8.92101 11.2589 8.67296 11.2589 8.36089C11.2589 8.04883 11.0109 7.80078 10.6988 7.80078H2.92925C2.61719 7.80078 2.36914 8.04883 2.36914 8.36089C2.36914 8.67296 2.61719 8.92101 2.92925 8.92101Z" fill="#434F58"/>
<path d="M10.6908 10.457H2.92925C2.61719 10.457 2.36914 10.7051 2.36914 11.0171C2.36914 11.3292 2.61719 11.5773 2.92925 11.5773H10.6988C11.0109 11.5773 11.2589 11.3292 11.2589 11.0171C11.2589 10.7051 11.0029 10.457 10.6908 10.457Z" fill="#434F58"/>
<path d="M10.6908 15.4805H2.92925C2.61719 15.4805 2.36914 15.7285 2.36914 16.0406C2.36914 16.3526 2.61719 16.6007 2.92925 16.6007H10.6988C11.0109 16.6007 11.2589 16.3526 11.2589 16.0406C11.2589 15.7285 11.0029 15.4805 10.6908 15.4805Z" fill="#434F58"/>
<path d="M10.6908 12.9727H2.92925C2.61719 12.9727 2.36914 13.2207 2.36914 13.5328C2.36914 13.8448 2.61719 14.0929 2.92925 14.0929H10.6988C11.0109 14.0929 11.2589 13.8448 11.2589 13.5328C11.2589 13.2207 11.0029 12.9727 10.6908 12.9727Z" fill="#434F58"/>
<path d="M17.1949 8.92101H24.9644C25.2765 8.92101 25.5245 8.67296 25.5245 8.36089C25.5245 8.04883 25.2765 7.80078 24.9644 7.80078H17.1949C16.8828 7.80078 16.6348 8.04883 16.6348 8.36089C16.6348 8.67296 16.8828 8.92101 17.1949 8.92101Z" fill="#434F58"/>
<path d="M17.1949 17.0577H24.9644C25.2765 17.0577 25.5245 16.8097 25.5245 16.4976C25.5245 16.1855 25.2765 15.9375 24.9644 15.9375H17.1949C16.8828 15.9375 16.6348 16.1855 16.6348 16.4976C16.6348 16.8097 16.8828 17.0577 17.1949 17.0577Z" fill="#434F58"/>
<path d="M19.5953 11.5773H23.7081C24.0202 11.5773 24.2682 11.3292 24.2682 11.0171C24.2682 10.7051 24.0202 10.457 23.7081 10.457H19.5953C19.2832 10.457 19.0352 10.7051 19.0352 11.0171C19.0352 11.3292 19.2832 11.5773 19.5953 11.5773Z" fill="#434F58"/>
<path d="M19.5953 14.0929H27.3648C27.6769 14.0929 27.9249 13.8448 27.9249 13.5328C27.9249 13.2207 27.6769 12.9727 27.3648 12.9727H19.5953C19.2832 12.9727 19.0352 13.2207 19.0352 13.5328C19.0352 13.8448 19.2832 14.0929 19.5953 14.0929Z" fill="#434F58"/>
<path d="M26.2222 11.5773H34.7439C35.056 11.5773 35.304 11.3292 35.304 11.0171C35.304 10.7051 35.056 10.457 34.7439 10.457H26.2222C25.9102 10.457 25.6621 10.7051 25.6621 11.0171C25.6621 11.3292 25.9102 11.5773 26.2222 11.5773Z" fill="#434F58"/>
<path d="M34.7425 12.9727H29.8775C29.5654 12.9727 29.3174 13.2207 29.3174 13.5328C29.3174 13.8448 29.5654 14.0929 29.8775 14.0929H34.7425C35.0545 14.0929 35.3026 13.8448 35.3026 13.5328C35.3026 13.2207 35.0545 12.9727 34.7425 12.9727Z" fill="#434F58"/>
<path d="M17.1949 20.4523H24.9644C25.2765 20.4523 25.5245 20.2042 25.5245 19.8921C25.5245 19.5801 25.2765 19.332 24.9644 19.332H17.1949C16.8828 19.332 16.6348 19.5801 16.6348 19.8921C16.6348 20.2042 16.8828 20.4523 17.1949 20.4523Z" fill="#434F58"/>
<path d="M24.9644 27.4766H17.1949C16.8828 27.4766 16.6348 27.7246 16.6348 28.0367C16.6348 28.3487 16.8828 28.5968 17.1949 28.5968H24.9644C25.2765 28.5968 25.5245 28.3487 25.5245 28.0367C25.5245 27.7246 25.2685 27.4766 24.9644 27.4766Z" fill="#434F58"/>
<path d="M19.5953 23.1163H23.7081C24.0202 23.1163 24.2682 22.8683 24.2682 22.5562C24.2682 22.2441 24.0202 21.9961 23.7081 21.9961H19.5953C19.2832 21.9961 19.0352 22.2441 19.0352 22.5562C19.0352 22.8683 19.2832 23.1163 19.5953 23.1163Z" fill="#434F58"/>
<path d="M27.3648 24.5H19.5953C19.2832 24.5 19.0352 24.7481 19.0352 25.0601C19.0352 25.3722 19.2832 25.6202 19.5953 25.6202H27.3648C27.6769 25.6202 27.9249 25.3722 27.9249 25.0601C27.9249 24.7481 27.6689 24.5 27.3648 24.5Z" fill="#434F58"/>
<path d="M34.7439 21.9961H26.2222C25.9102 21.9961 25.6621 22.2441 25.6621 22.5562C25.6621 22.8683 25.9102 23.1163 26.2222 23.1163H34.7439C35.056 23.1163 35.304 22.8683 35.304 22.5562C35.304 22.2441 35.056 21.9961 34.7439 21.9961Z" fill="#434F58"/>
<path d="M34.7425 24.5H29.8775C29.5654 24.5 29.3174 24.7481 29.3174 25.0601C29.3174 25.3722 29.5654 25.6202 29.8775 25.6202H34.7425C35.0545 25.6202 35.3026 25.3722 35.3026 25.0601C35.3026 24.7481 35.0545 24.5 34.7425 24.5Z" fill="#434F58"/>
<path d="M6.80221 2.32031C6.45814 2.32031 6.16208 2.60837 6.17008 2.95244C6.17008 3.29651 6.45814 3.58457 6.80221 3.58457C7.14627 3.58457 7.43433 3.29651 7.43433 2.95244C7.43433 2.60037 7.14627 2.32031 6.80221 2.32031Z" fill="#434F58"/>
<path d="M10.0659 2.32031C9.71382 2.32031 9.42575 2.60837 9.43376 2.95244C9.43376 3.29651 9.72182 3.58457 10.0659 3.58457C10.41 3.58457 10.698 3.29651 10.698 2.95244C10.69 2.60037 10.41 2.32031 10.0659 2.32031Z" fill="#434F58"/>
<path d="M3.55319 2.32031C3.20112 2.32031 2.91306 2.60837 2.92106 2.95244C2.92106 3.29651 3.20912 3.58457 3.55319 3.58457C3.89726 3.58457 4.18531 3.29651 4.18531 2.95244C4.18531 2.60037 3.89726 2.32031 3.55319 2.32031Z" fill="#434F58"/>
</svg>
