<svg width="40" height="41" viewBox="0 0 40 41" fill="none" xmlns="http://www.w3.org/2000/svg">
<path d="M18.6 28.9828H1.1V6.28281H33.3V13.5828C33.7 13.8828 34.1 14.1828 34.4 14.4828V0.682813C34.4 0.482813 34.3 0.382812 34.1 0.382812H0.3C0.1 0.382812 0 0.482813 0 0.682813V5.18281V6.28281V29.7828C0 29.9828 0.1 30.0828 0.3 30.0828H19.5C19.1 29.7828 18.8 29.3828 18.6 28.9828ZM1.1 1.48281H33.3V5.08281H1.1V1.48281Z" fill="#434F58"/>
<path d="M6.79922 2.68359C6.49922 2.68359 6.19922 2.98359 6.19922 3.38359C6.19922 3.68359 6.49922 3.98359 6.79922 3.98359C7.09922 3.98359 7.39922 3.68359 7.39922 3.38359C7.49922 2.98359 7.19922 2.68359 6.79922 2.68359Z" fill="#434F58"/>
<path d="M10.1 2.68359C9.8 2.68359 9.5 2.98359 9.5 3.38359C9.5 3.68359 9.8 3.98359 10.1 3.98359C10.4 3.98359 10.7 3.68359 10.7 3.38359C10.7 2.98359 10.5 2.68359 10.1 2.68359Z" fill="#434F58"/>
<path d="M3.60039 2.68359C3.20039 2.68359 2.90039 2.98359 2.90039 3.38359C2.90039 3.68359 3.20039 3.98359 3.50039 3.98359C3.80039 3.98359 4.10039 3.68359 4.10039 3.38359C4.20039 2.98359 3.90039 2.68359 3.60039 2.68359Z" fill="#434F58"/>
<path d="M26.3 17.682C29.4 17.682 32 20.182 32 23.382C32 25.082 31.2 26.582 30.1 27.682H30.2C30.8 27.682 31.4 27.582 31.9 27.282C32.7 26.182 33.1 24.782 33.1 23.382C33.1 19.682 30.1 16.582 26.3 16.582C22.5 16.582 19.5 19.582 19.5 23.382C19.5 25.882 20.9 28.082 22.9 29.282C22.9 28.882 23.1 28.482 23.2 28.182C21.6 27.182 20.6 25.382 20.6 23.382C20.6 20.182 23.2 17.682 26.3 17.682Z" fill="#434F58"/>
<path d="M33.6004 15.8828C31.7004 14.0828 29.2004 12.8828 26.3004 12.8828C20.6004 12.8828 15.9004 17.5828 15.9004 23.2828C15.9004 23.5828 16.2004 23.8828 16.5004 23.8828C16.8004 23.8828 17.1004 23.5828 17.1004 23.2828C17.1004 18.1828 21.3004 13.9828 26.4004 13.9828C30.8004 13.9828 34.5004 17.0828 35.4004 21.1828C35.4004 21.2828 35.4004 21.2828 35.4004 21.3828V21.4828C35.4004 21.5828 35.4004 21.6828 35.5004 21.7828C35.5004 21.8828 35.5004 22.0828 35.5004 22.1828C35.5004 22.2828 35.5004 22.3828 35.5004 22.5828C35.6004 24.4828 35.1004 26.4828 34.1004 28.0828C33.8004 28.5828 33.2004 28.8828 32.7004 28.8828H28.2004C28.0004 27.9828 27.2004 27.3828 26.2004 27.3828C25.1004 27.3828 24.1004 28.2828 24.1004 29.4828V30.0828H28.2004H32.6004C33.6004 30.0828 34.5004 29.5828 35.0004 28.7828C36.0004 27.1828 36.6004 25.2828 36.6004 23.3828C36.6004 23.1828 36.6004 23.0828 36.6004 22.8828C36.6004 22.7828 36.6004 22.7828 36.6004 22.6828C36.6004 22.6828 36.6004 22.6828 36.6004 22.5828C36.6004 22.4828 36.6004 22.4828 36.6004 22.3828V22.2828C36.6004 22.1828 36.6004 22.1828 36.6004 22.0828C36.5004 20.8828 36.1004 19.6828 35.6004 18.5828C35.6004 18.5828 35.6004 18.4828 35.5004 18.4828C35.5004 18.4828 35.5004 18.3828 35.4004 18.3828C35.4004 18.3828 35.4004 18.3828 35.4004 18.2828C34.9004 17.4828 34.4004 16.6828 33.6004 15.8828C33.6004 15.9828 33.6004 15.9828 33.6004 15.8828Z" fill="#434F58"/>
<path d="M36.9004 32.6839C35.3004 31.1839 33.0004 30.6839 30.9004 31.4839C29.5004 32.0839 28.0004 32.3839 26.5004 32.3839C24.9004 32.3839 23.4004 32.0839 22.0004 31.5839C20.0004 30.7839 17.6004 31.2839 16.0004 32.7839C14.0004 34.6839 12.9004 37.1839 12.9004 39.8839V40.3839H40.0004V39.7839C40.0004 37.0839 38.9004 34.5839 36.9004 32.6839ZM14.1004 39.1839C14.2004 36.9839 15.2004 34.9839 16.8004 33.4839C18.1004 32.2839 20.0004 31.8839 21.6004 32.5839C23.2004 33.1839 24.8004 33.4839 26.5004 33.4839C28.2004 33.4839 29.8004 33.1839 31.4004 32.5839C33.0004 31.9839 34.9004 32.2839 36.2004 33.4839C37.8004 34.9839 38.7004 36.9839 38.9004 39.1839H14.1004Z" fill="#434F58"/>
<path d="M6.59961 12.6836L7.29961 18.5836L8.29961 17.0836L9.49961 19.2836L10.4996 18.6836L9.29961 16.5836L11.0996 16.4836L6.59961 12.6836Z" fill="#434F58"/>
</svg>
