<svg width="40" height="40" viewBox="0 0 40 40" fill="none" xmlns="http://www.w3.org/2000/svg">
<path d="M39.4371 38.8741H37.0084V37.7483H35.8826V38.8741H30.0603V37.7483H28.9345V38.8741H23.1122V37.7483H21.9863V38.8741H16.1641V37.7483H15.0382V38.8741H9.21592V37.7483H8.09007V38.8741H2.25171V37.7483H1.12585V31.926H2.25171V30.8002H1.12585V24.9779H2.25171V23.852H1.12585V18.0298H2.25171V16.9039H1.12585V11.0816H2.25171V9.95577H1.12585V4.11741H2.25171V2.99156H1.12585V0.562927C1.12585 0.249296 0.876558 0 0.562927 0C0.249296 0 0 0.249296 0 0.562927V40H39.4371C39.7507 40 40 39.7507 40 39.4371C40 39.1234 39.7507 38.8741 39.4371 38.8741Z" fill="#434F58"/>
<path d="M3.07892 24.9631C3.17542 25.0355 3.28801 25.0676 3.40059 25.0676C3.57751 25.0676 3.75443 24.9872 3.85898 24.8264L8.8449 17.7416L15.6081 20.2184L22.5401 10.1018L29.4561 16.2458L34.8843 7.60886L36.0584 9.84449L37.3049 2.69531L31.4022 6.92531L33.9273 7.01377L29.2068 14.5248L22.323 8.41304L15.1658 18.8594L8.41065 16.3905L2.92613 24.175C2.76529 24.4323 2.82158 24.7862 3.07892 24.9631Z" fill="#434F58"/>
</svg>
